<?xml version="1.0" encoding="utf-8" standalone="no"?>
<!DOCTYPE svg PUBLIC "-//W3C//DTD SVG 1.1//EN"
  "http://www.w3.org/Graphics/SVG/1.1/DTD/svg11.dtd">
<svg xmlns:xlink="http://www.w3.org/1999/xlink" width="165.11159pt" height="122.09738pt" viewBox="0 0 165.11159 122.09738" xmlns="http://www.w3.org/2000/svg" version="1.1">
 <metadata>
  <rdf:RDF xmlns:dc="http://purl.org/dc/elements/1.1/" xmlns:cc="http://creativecommons.org/ns#" xmlns:rdf="http://www.w3.org/1999/02/22-rdf-syntax-ns#">
   <cc:Work>
    <dc:type rdf:resource="http://purl.org/dc/dcmitype/StillImage"/>
    <dc:date>2025-01-15T16:13:27.664904</dc:date>
    <dc:format>image/svg+xml</dc:format>
    <dc:creator>
     <cc:Agent>
      <dc:title>Matplotlib v3.9.4, https://matplotlib.org/</dc:title>
     </cc:Agent>
    </dc:creator>
   </cc:Work>
  </rdf:RDF>
 </metadata>
 <defs>
  <style type="text/css">*{stroke-linejoin: round; stroke-linecap: butt}</style>
 </defs>
 <g id="figure_1">
  <g id="patch_1">
   <path d="M 0 122.09738 
L 165.11159 122.09738 
L 165.11159 0 
L 0 0 
z
" style="fill: #ffffff"/>
  </g>
  <g id="axes_1">
   <g id="patch_2">
    <path d="M 69.39375 78.94888 
L 157.91159 78.94888 
L 157.91159 7.2 
L 69.39375 7.2 
z
" style="fill: #ffffff"/>
   </g>
   <g id="patch_3">
    <path d="M 117.113227 10.461313 
L 97.033665 10.461313 
L 97.033665 29.097385 
L 117.113227 29.097385 
z
" clip-path="url(#p0b223e042c)" style="fill: #c05d5d"/>
   </g>
   <g id="patch_4">
    <path d="M 117.113227 33.756404 
L 134.528917 33.756404 
L 134.528917 52.392476 
L 117.113227 52.392476 
z
" clip-path="url(#p0b223e042c)" style="fill: #e1a06b"/>
   </g>
   <g id="patch_5">
    <path d="M 117.113227 57.051495 
L 82.317716 57.051495 
L 82.317716 75.687567 
L 117.113227 75.687567 
z
" clip-path="url(#p0b223e042c)" style="fill: #706880"/>
   </g>
   <g id="matplotlib.axis_1">
    <g id="xtick_1">
     <g id="line2d_1">
      <defs>
       <path id="m2be04ea12a" d="M 0 0 
L 0 3.5 
" style="stroke: #000000; stroke-width: 0.8"/>
      </defs>
      <g>
       <use xlink:href="#m2be04ea12a" x="91.693356" y="78.94888" style="stroke: #000000; stroke-width: 0.8"/>
      </g>
     </g>
     <g id="text_1">
      <!-- −0.5 -->
      <g transform="translate(83.863356 91.94888) scale(0.08 -0.08)">
       <defs>
        <path id="Roboto-Regular-2212" d="M 3134 2034 
L 525 2034 
L 525 2506 
L 3134 2506 
L 3134 2034 
z
" transform="scale(0.015625)"/>
        <path id="Roboto-Regular-30" d="M 3231 1941 
Q 3231 925 2884 431 
Q 2538 -63 1800 -63 
Q 1072 -63 722 420 
Q 372 903 359 1863 
L 359 2634 
Q 359 3638 706 4125 
Q 1053 4613 1794 4613 
Q 2528 4613 2875 4142 
Q 3222 3672 3231 2691 
L 3231 1941 
z
M 2653 2731 
Q 2653 3466 2447 3802 
Q 2241 4138 1794 4138 
Q 1350 4138 1147 3803 
Q 944 3469 938 2775 
L 938 1850 
Q 938 1113 1152 761 
Q 1366 409 1800 409 
Q 2228 409 2436 740 
Q 2644 1072 2653 1784 
L 2653 2731 
z
" transform="scale(0.015625)"/>
        <path id="Roboto-Regular-2e" d="M 450 303 
Q 450 453 539 553 
Q 628 653 806 653 
Q 984 653 1076 553 
Q 1169 453 1169 303 
Q 1169 159 1076 62 
Q 984 -34 806 -34 
Q 628 -34 539 62 
Q 450 159 450 303 
z
" transform="scale(0.015625)"/>
        <path id="Roboto-Regular-35" d="M 644 2281 
L 875 4550 
L 3206 4550 
L 3206 4016 
L 1366 4016 
L 1228 2775 
Q 1563 2972 1988 2972 
Q 2609 2972 2975 2561 
Q 3341 2150 3341 1450 
Q 3341 747 2961 342 
Q 2581 -63 1900 -63 
Q 1297 -63 915 271 
Q 534 606 481 1197 
L 1028 1197 
Q 1081 806 1306 607 
Q 1531 409 1900 409 
Q 2303 409 2533 684 
Q 2763 959 2763 1444 
Q 2763 1900 2514 2176 
Q 2266 2453 1853 2453 
Q 1475 2453 1259 2288 
L 1106 2163 
L 644 2281 
z
" transform="scale(0.015625)"/>
       </defs>
       <use xlink:href="#Roboto-Regular-2212"/>
       <use xlink:href="#Roboto-Regular-30" x="57.128906"/>
       <use xlink:href="#Roboto-Regular-2e" x="113.28125"/>
       <use xlink:href="#Roboto-Regular-35" x="139.599609"/>
      </g>
     </g>
    </g>
    <g id="xtick_2">
     <g id="line2d_2">
      <g>
       <use xlink:href="#m2be04ea12a" x="117.113227" y="78.94888" style="stroke: #000000; stroke-width: 0.8"/>
      </g>
     </g>
     <g id="text_2">
      <!-- 0.0 -->
      <g transform="translate(111.568227 91.94888) scale(0.08 -0.08)">
       <use xlink:href="#Roboto-Regular-30"/>
       <use xlink:href="#Roboto-Regular-2e" x="56.152344"/>
       <use xlink:href="#Roboto-Regular-30" x="82.470703"/>
      </g>
     </g>
    </g>
    <g id="xtick_3">
     <g id="line2d_3">
      <g>
       <use xlink:href="#m2be04ea12a" x="142.533098" y="78.94888" style="stroke: #000000; stroke-width: 0.8"/>
      </g>
     </g>
     <g id="text_3">
      <!-- 0.5 -->
      <g transform="translate(136.988098 91.94888) scale(0.08 -0.08)">
       <use xlink:href="#Roboto-Regular-30"/>
       <use xlink:href="#Roboto-Regular-2e" x="56.152344"/>
       <use xlink:href="#Roboto-Regular-35" x="82.470703"/>
      </g>
     </g>
    </g>
    <g id="text_4">
     <!-- Intrinsic Dimensionality -->
     <g transform="translate(72.139545 103.57388) scale(0.08 -0.08)">
      <defs>
       <path id="Roboto-Regular-49" d="M 1172 0 
L 572 0 
L 572 4550 
L 1172 4550 
L 1172 0 
z
" transform="scale(0.015625)"/>
       <path id="Roboto-Regular-6e" d="M 984 3381 
L 1003 2956 
Q 1391 3444 2016 3444 
Q 3088 3444 3097 2234 
L 3097 0 
L 2519 0 
L 2519 2238 
Q 2516 2603 2352 2778 
Q 2188 2953 1841 2953 
Q 1559 2953 1346 2803 
Q 1134 2653 1016 2409 
L 1016 0 
L 438 0 
L 438 3381 
L 984 3381 
z
" transform="scale(0.015625)"/>
       <path id="Roboto-Regular-74" d="M 1222 4200 
L 1222 3381 
L 1853 3381 
L 1853 2934 
L 1222 2934 
L 1222 838 
Q 1222 634 1306 532 
Q 1391 431 1594 431 
Q 1694 431 1869 469 
L 1869 0 
Q 1641 -63 1425 -63 
Q 1038 -63 841 171 
Q 644 406 644 838 
L 644 2934 
L 28 2934 
L 28 3381 
L 644 3381 
L 644 4200 
L 1222 4200 
z
" transform="scale(0.015625)"/>
       <path id="Roboto-Regular-72" d="M 2072 2863 
Q 1941 2884 1788 2884 
Q 1219 2884 1016 2400 
L 1016 0 
L 438 0 
L 438 3381 
L 1000 3381 
L 1009 2991 
Q 1294 3444 1816 3444 
Q 1984 3444 2072 3400 
L 2072 2863 
z
" transform="scale(0.015625)"/>
       <path id="Roboto-Regular-69" d="M 1066 0 
L 488 0 
L 488 3381 
L 1066 3381 
L 1066 0 
z
M 441 4278 
Q 441 4419 527 4516 
Q 613 4613 781 4613 
Q 950 4613 1037 4516 
Q 1125 4419 1125 4278 
Q 1125 4138 1037 4044 
Q 950 3950 781 3950 
Q 613 3950 527 4044 
Q 441 4138 441 4278 
z
" transform="scale(0.015625)"/>
       <path id="Roboto-Regular-73" d="M 2406 897 
Q 2406 1131 2229 1261 
Q 2053 1391 1614 1484 
Q 1175 1578 917 1709 
Q 659 1841 536 2022 
Q 413 2203 413 2453 
Q 413 2869 764 3156 
Q 1116 3444 1663 3444 
Q 2238 3444 2595 3147 
Q 2953 2850 2953 2388 
L 2372 2388 
Q 2372 2625 2170 2797 
Q 1969 2969 1663 2969 
Q 1347 2969 1169 2831 
Q 991 2694 991 2472 
Q 991 2263 1156 2156 
Q 1322 2050 1755 1953 
Q 2188 1856 2456 1722 
Q 2725 1588 2854 1398 
Q 2984 1209 2984 938 
Q 2984 484 2621 210 
Q 2259 -63 1681 -63 
Q 1275 -63 962 81 
Q 650 225 473 483 
Q 297 741 297 1041 
L 875 1041 
Q 891 750 1108 579 
Q 1325 409 1681 409 
Q 2009 409 2207 542 
Q 2406 675 2406 897 
z
" transform="scale(0.015625)"/>
       <path id="Roboto-Regular-63" d="M 1794 409 
Q 2103 409 2334 596 
Q 2566 784 2591 1066 
L 3138 1066 
Q 3122 775 2937 512 
Q 2753 250 2445 93 
Q 2138 -63 1794 -63 
Q 1103 -63 695 398 
Q 288 859 288 1659 
L 288 1756 
Q 288 2250 469 2634 
Q 650 3019 989 3231 
Q 1328 3444 1791 3444 
Q 2359 3444 2736 3103 
Q 3113 2763 3138 2219 
L 2591 2219 
Q 2566 2547 2342 2758 
Q 2119 2969 1791 2969 
Q 1350 2969 1108 2651 
Q 866 2334 866 1734 
L 866 1625 
Q 866 1041 1106 725 
Q 1347 409 1794 409 
z
" transform="scale(0.015625)"/>
       <path id="Roboto-Regular-20" transform="scale(0.015625)"/>
       <path id="Roboto-Regular-44" d="M 528 0 
L 528 4550 
L 1813 4550 
Q 2406 4550 2862 4287 
Q 3319 4025 3567 3540 
Q 3816 3056 3819 2428 
L 3819 2138 
Q 3819 1494 3570 1009 
Q 3322 525 2861 265 
Q 2400 6 1788 0 
L 528 0 
z
M 1128 4056 
L 1128 491 
L 1759 491 
Q 2453 491 2839 922 
Q 3225 1353 3225 2150 
L 3225 2416 
Q 3225 3191 2861 3620 
Q 2497 4050 1828 4056 
L 1128 4056 
z
" transform="scale(0.015625)"/>
       <path id="Roboto-Regular-6d" d="M 981 3381 
L 997 3006 
Q 1369 3444 2000 3444 
Q 2709 3444 2966 2900 
Q 3134 3144 3404 3294 
Q 3675 3444 4044 3444 
Q 5156 3444 5175 2266 
L 5175 0 
L 4597 0 
L 4597 2231 
Q 4597 2594 4431 2773 
Q 4266 2953 3875 2953 
Q 3553 2953 3340 2761 
Q 3128 2569 3094 2244 
L 3094 0 
L 2513 0 
L 2513 2216 
Q 2513 2953 1791 2953 
Q 1222 2953 1013 2469 
L 1013 0 
L 434 0 
L 434 3381 
L 981 3381 
z
" transform="scale(0.015625)"/>
       <path id="Roboto-Regular-65" d="M 1841 -63 
Q 1153 -63 722 389 
Q 291 841 291 1597 
L 291 1703 
Q 291 2206 483 2601 
Q 675 2997 1020 3220 
Q 1366 3444 1769 3444 
Q 2428 3444 2793 3009 
Q 3159 2575 3159 1766 
L 3159 1525 
L 869 1525 
Q 881 1025 1161 717 
Q 1441 409 1872 409 
Q 2178 409 2390 534 
Q 2603 659 2763 866 
L 3116 591 
Q 2691 -63 1841 -63 
z
M 1769 2969 
Q 1419 2969 1181 2714 
Q 944 2459 888 2000 
L 2581 2000 
L 2581 2044 
Q 2556 2484 2343 2726 
Q 2131 2969 1769 2969 
z
" transform="scale(0.015625)"/>
       <path id="Roboto-Regular-6f" d="M 284 1722 
Q 284 2219 479 2616 
Q 675 3013 1023 3228 
Q 1372 3444 1819 3444 
Q 2509 3444 2936 2966 
Q 3363 2488 3363 1694 
L 3363 1653 
Q 3363 1159 3173 767 
Q 2984 375 2632 156 
Q 2281 -63 1825 -63 
Q 1138 -63 711 415 
Q 284 894 284 1681 
L 284 1722 
z
M 866 1653 
Q 866 1091 1127 750 
Q 1388 409 1825 409 
Q 2266 409 2525 754 
Q 2784 1100 2784 1722 
Q 2784 2278 2520 2623 
Q 2256 2969 1819 2969 
Q 1391 2969 1128 2628 
Q 866 2288 866 1653 
z
" transform="scale(0.015625)"/>
       <path id="Roboto-Regular-61" d="M 2525 0 
Q 2475 100 2444 356 
Q 2041 -63 1481 -63 
Q 981 -63 661 220 
Q 341 503 341 938 
Q 341 1466 742 1758 
Q 1144 2050 1872 2050 
L 2434 2050 
L 2434 2316 
Q 2434 2619 2253 2798 
Q 2072 2978 1719 2978 
Q 1409 2978 1200 2822 
Q 991 2666 991 2444 
L 409 2444 
Q 409 2697 589 2933 
Q 769 3169 1076 3306 
Q 1384 3444 1753 3444 
Q 2338 3444 2669 3151 
Q 3000 2859 3013 2347 
L 3013 791 
Q 3013 325 3131 50 
L 3131 0 
L 2525 0 
z
M 1566 441 
Q 1838 441 2081 581 
Q 2325 722 2434 947 
L 2434 1641 
L 1981 1641 
Q 919 1641 919 1019 
Q 919 747 1100 594 
Q 1281 441 1566 441 
z
" transform="scale(0.015625)"/>
       <path id="Roboto-Regular-6c" d="M 1066 0 
L 488 0 
L 488 4800 
L 1066 4800 
L 1066 0 
z
" transform="scale(0.015625)"/>
       <path id="Roboto-Regular-79" d="M 1544 847 
L 2331 3381 
L 2950 3381 
L 1591 -522 
Q 1275 -1366 588 -1366 
L 478 -1356 
L 263 -1316 
L 263 -847 
L 419 -859 
Q 713 -859 877 -740 
Q 1041 -622 1147 -306 
L 1275 38 
L 69 3381 
L 700 3381 
L 1544 847 
z
" transform="scale(0.015625)"/>
      </defs>
      <use xlink:href="#Roboto-Regular-49"/>
      <use xlink:href="#Roboto-Regular-6e" x="27.197266"/>
      <use xlink:href="#Roboto-Regular-74" x="82.373047"/>
      <use xlink:href="#Roboto-Regular-72" x="115.039062"/>
      <use xlink:href="#Roboto-Regular-69" x="148.876953"/>
      <use xlink:href="#Roboto-Regular-6e" x="173.144531"/>
      <use xlink:href="#Roboto-Regular-73" x="228.320312"/>
      <use xlink:href="#Roboto-Regular-69" x="279.882812"/>
      <use xlink:href="#Roboto-Regular-63" x="304.150391"/>
      <use xlink:href="#Roboto-Regular-20" x="356.494141"/>
      <use xlink:href="#Roboto-Regular-44" x="381.25"/>
      <use xlink:href="#Roboto-Regular-69" x="446.826172"/>
      <use xlink:href="#Roboto-Regular-6d" x="471.09375"/>
      <use xlink:href="#Roboto-Regular-65" x="558.740234"/>
      <use xlink:href="#Roboto-Regular-6e" x="611.71875"/>
      <use xlink:href="#Roboto-Regular-73" x="666.894531"/>
      <use xlink:href="#Roboto-Regular-69" x="718.457031"/>
      <use xlink:href="#Roboto-Regular-6f" x="742.724609"/>
      <use xlink:href="#Roboto-Regular-6e" x="799.755859"/>
      <use xlink:href="#Roboto-Regular-61" x="854.931641"/>
      <use xlink:href="#Roboto-Regular-6c" x="909.326172"/>
      <use xlink:href="#Roboto-Regular-69" x="933.59375"/>
      <use xlink:href="#Roboto-Regular-74" x="957.861328"/>
      <use xlink:href="#Roboto-Regular-79" x="990.527344"/>
     </g>
     <!-- Alignment($\rho$) -->
     <g transform="translate(90.21267 113.05738) scale(0.08 -0.08)">
      <defs>
       <path id="Roboto-Regular-41" d="M 3041 1188 
L 1134 1188 
L 706 0 
L 88 0 
L 1825 4550 
L 2350 4550 
L 4091 0 
L 3475 0 
L 3041 1188 
z
M 1316 1681 
L 2863 1681 
L 2088 3809 
L 1316 1681 
z
" transform="scale(0.015625)"/>
       <path id="Roboto-Regular-67" d="M 300 1719 
Q 300 2509 665 2976 
Q 1031 3444 1634 3444 
Q 2253 3444 2600 3006 
L 2628 3381 
L 3156 3381 
L 3156 81 
Q 3156 -575 2767 -953 
Q 2378 -1331 1722 -1331 
Q 1356 -1331 1006 -1175 
Q 656 -1019 472 -747 
L 772 -400 
Q 1144 -859 1681 -859 
Q 2103 -859 2339 -621 
Q 2575 -384 2575 47 
L 2575 338 
Q 2228 -63 1628 -63 
Q 1034 -63 667 415 
Q 300 894 300 1719 
z
M 881 1653 
Q 881 1081 1115 754 
Q 1350 428 1772 428 
Q 2319 428 2575 925 
L 2575 2469 
Q 2309 2953 1778 2953 
Q 1356 2953 1118 2625 
Q 881 2297 881 1653 
z
" transform="scale(0.015625)"/>
       <path id="Roboto-Regular-28" d="M 416 1847 
Q 416 2553 605 3203 
Q 794 3853 1169 4384 
Q 1544 4916 1947 5134 
L 2066 4753 
Q 1609 4403 1317 3684 
Q 1025 2966 997 2075 
L 994 1809 
Q 994 603 1434 -284 
Q 1700 -816 2066 -1116 
L 1947 -1469 
Q 1531 -1238 1153 -694 
Q 416 369 416 1847 
z
" transform="scale(0.015625)"/>
       <path id="DejaVuSans-Oblique-3c1" d="M 1203 2875 
Q 1453 3194 1981 3475 
Q 2188 3584 2756 3584 
Q 3394 3584 3694 3078 
Q 3994 2572 3834 1747 
Q 3672 922 3175 415 
Q 2678 -91 2041 -91 
Q 1656 -91 1409 63 
Q 1163 213 1044 525 
L 681 -1331 
L 103 -1331 
L 697 1716 
Q 838 2438 1203 2875 
z
M 3238 1747 
Q 3359 2381 3169 2744 
Q 2978 3103 2522 3103 
Q 2066 3103 1734 2744 
Q 1403 2381 1281 1747 
Q 1156 1113 1347 750 
Q 1538 391 1994 391 
Q 2450 391 2781 750 
Q 3113 1113 3238 1747 
z
" transform="scale(0.015625)"/>
       <path id="Roboto-Regular-29" d="M 1772 1816 
Q 1772 1119 1589 480 
Q 1406 -159 1029 -700 
Q 653 -1241 241 -1469 
L 119 -1116 
Q 600 -747 892 29 
Q 1184 806 1191 1753 
L 1191 1853 
Q 1191 2509 1053 3073 
Q 916 3638 670 4084 
Q 425 4531 119 4781 
L 241 5134 
Q 653 4906 1026 4372 
Q 1400 3838 1586 3194 
Q 1772 2550 1772 1816 
z
" transform="scale(0.015625)"/>
      </defs>
      <use xlink:href="#Roboto-Regular-41" transform="translate(0 0.78125)"/>
      <use xlink:href="#Roboto-Regular-6c" transform="translate(65.234375 0.78125)"/>
      <use xlink:href="#Roboto-Regular-69" transform="translate(89.501953 0.78125)"/>
      <use xlink:href="#Roboto-Regular-67" transform="translate(113.769531 0.78125)"/>
      <use xlink:href="#Roboto-Regular-6e" transform="translate(169.873047 0.78125)"/>
      <use xlink:href="#Roboto-Regular-6d" transform="translate(225.048828 0.78125)"/>
      <use xlink:href="#Roboto-Regular-65" transform="translate(312.695312 0.78125)"/>
      <use xlink:href="#Roboto-Regular-6e" transform="translate(365.673828 0.78125)"/>
      <use xlink:href="#Roboto-Regular-74" transform="translate(420.849609 0.78125)"/>
      <use xlink:href="#Roboto-Regular-28" transform="translate(453.515625 0.78125)"/>
      <use xlink:href="#DejaVuSans-Oblique-3c1" transform="translate(487.695312 0.78125)"/>
      <use xlink:href="#Roboto-Regular-29" transform="translate(551.171875 0.78125)"/>
     </g>
    </g>
   </g>
   <g id="matplotlib.axis_2">
    <g id="ytick_1">
     <g id="line2d_4">
      <defs>
       <path id="m8e0826497d" d="M 0 0 
L -3.5 0 
" style="stroke: #000000; stroke-width: 0.8"/>
      </defs>
      <g>
       <use xlink:href="#m8e0826497d" x="69.39375" y="19.779349" style="stroke: #000000; stroke-width: 0.8"/>
      </g>
     </g>
     <g id="text_5">
      <!-- Supervised -->
      <g transform="translate(23.11125 22.779349) scale(0.08 -0.08)">
       <defs>
        <path id="Roboto-Regular-53" d="M 1869 2028 
Q 1097 2250 745 2573 
Q 394 2897 394 3372 
Q 394 3909 823 4261 
Q 1253 4613 1941 4613 
Q 2409 4613 2776 4431 
Q 3144 4250 3345 3931 
Q 3547 3613 3547 3234 
L 2944 3234 
Q 2944 3647 2681 3883 
Q 2419 4119 1941 4119 
Q 1497 4119 1248 3923 
Q 1000 3728 1000 3381 
Q 1000 3103 1236 2911 
Q 1472 2719 2039 2559 
Q 2606 2400 2926 2208 
Q 3247 2016 3401 1759 
Q 3556 1503 3556 1156 
Q 3556 603 3125 270 
Q 2694 -63 1972 -63 
Q 1503 -63 1097 117 
Q 691 297 470 609 
Q 250 922 250 1319 
L 853 1319 
Q 853 906 1158 667 
Q 1463 428 1972 428 
Q 2447 428 2700 622 
Q 2953 816 2953 1150 
Q 2953 1484 2718 1667 
Q 2484 1850 1869 2028 
z
" transform="scale(0.015625)"/>
        <path id="Roboto-Regular-75" d="M 2525 334 
Q 2188 -63 1534 -63 
Q 994 -63 711 251 
Q 428 566 425 1181 
L 425 3381 
L 1003 3381 
L 1003 1197 
Q 1003 428 1628 428 
Q 2291 428 2509 922 
L 2509 3381 
L 3088 3381 
L 3088 0 
L 2538 0 
L 2525 334 
z
" transform="scale(0.015625)"/>
        <path id="Roboto-Regular-70" d="M 3294 1653 
Q 3294 881 2941 409 
Q 2588 -63 1984 -63 
Q 1369 -63 1016 328 
L 1016 -1300 
L 438 -1300 
L 438 3381 
L 966 3381 
L 994 3006 
Q 1347 3444 1975 3444 
Q 2584 3444 2939 2984 
Q 3294 2525 3294 1706 
L 3294 1653 
z
M 2716 1719 
Q 2716 2291 2472 2622 
Q 2228 2953 1803 2953 
Q 1278 2953 1016 2488 
L 1016 872 
Q 1275 409 1809 409 
Q 2225 409 2470 739 
Q 2716 1069 2716 1719 
z
" transform="scale(0.015625)"/>
        <path id="Roboto-Regular-76" d="M 1553 784 
L 2391 3381 
L 2981 3381 
L 1769 0 
L 1328 0 
L 103 3381 
L 694 3381 
L 1553 784 
z
" transform="scale(0.015625)"/>
        <path id="Roboto-Regular-64" d="M 297 1719 
Q 297 2497 665 2970 
Q 1034 3444 1631 3444 
Q 2225 3444 2572 3038 
L 2572 4800 
L 3150 4800 
L 3150 0 
L 2619 0 
L 2591 363 
Q 2244 -63 1625 -63 
Q 1038 -63 667 418 
Q 297 900 297 1675 
L 297 1719 
z
M 875 1653 
Q 875 1078 1112 753 
Q 1350 428 1769 428 
Q 2319 428 2572 922 
L 2572 2475 
Q 2313 2953 1775 2953 
Q 1350 2953 1112 2625 
Q 875 2297 875 1653 
z
" transform="scale(0.015625)"/>
       </defs>
       <use xlink:href="#Roboto-Regular-53"/>
       <use xlink:href="#Roboto-Regular-75" x="59.326172"/>
       <use xlink:href="#Roboto-Regular-70" x="114.453125"/>
       <use xlink:href="#Roboto-Regular-65" x="170.556641"/>
       <use xlink:href="#Roboto-Regular-72" x="223.535156"/>
       <use xlink:href="#Roboto-Regular-76" x="257.373047"/>
       <use xlink:href="#Roboto-Regular-69" x="305.810547"/>
       <use xlink:href="#Roboto-Regular-73" x="330.078125"/>
       <use xlink:href="#Roboto-Regular-65" x="381.640625"/>
       <use xlink:href="#Roboto-Regular-64" x="434.619141"/>
      </g>
     </g>
    </g>
    <g id="ytick_2">
     <g id="line2d_5">
      <g>
       <use xlink:href="#m8e0826497d" x="69.39375" y="43.07444" style="stroke: #000000; stroke-width: 0.8"/>
      </g>
     </g>
     <g id="text_6">
      <!-- Self-Supervised -->
      <g transform="translate(7.2 46.11569) scale(0.08 -0.08)">
       <defs>
        <path id="Roboto-Regular-66" d="M 722 0 
L 722 2934 
L 188 2934 
L 188 3381 
L 722 3381 
L 722 3728 
Q 722 4272 1012 4569 
Q 1303 4866 1834 4866 
Q 2034 4866 2231 4813 
L 2200 4344 
Q 2053 4372 1888 4372 
Q 1606 4372 1453 4208 
Q 1300 4044 1300 3738 
L 1300 3381 
L 2022 3381 
L 2022 2934 
L 1300 2934 
L 1300 0 
L 722 0 
z
" transform="scale(0.015625)"/>
        <path id="Roboto-Regular-2d" d="M 1641 1697 
L 116 1697 
L 116 2169 
L 1641 2169 
L 1641 1697 
z
" transform="scale(0.015625)"/>
       </defs>
       <use xlink:href="#Roboto-Regular-53"/>
       <use xlink:href="#Roboto-Regular-65" x="59.326172"/>
       <use xlink:href="#Roboto-Regular-6c" x="112.304688"/>
       <use xlink:href="#Roboto-Regular-66" x="136.572266"/>
       <use xlink:href="#Roboto-Regular-2d" x="171.289062"/>
       <use xlink:href="#Roboto-Regular-53" x="198.876953"/>
       <use xlink:href="#Roboto-Regular-75" x="258.203125"/>
       <use xlink:href="#Roboto-Regular-70" x="313.330078"/>
       <use xlink:href="#Roboto-Regular-65" x="369.433594"/>
       <use xlink:href="#Roboto-Regular-72" x="422.412109"/>
       <use xlink:href="#Roboto-Regular-76" x="456.25"/>
       <use xlink:href="#Roboto-Regular-69" x="504.6875"/>
       <use xlink:href="#Roboto-Regular-73" x="528.955078"/>
       <use xlink:href="#Roboto-Regular-65" x="580.517578"/>
       <use xlink:href="#Roboto-Regular-64" x="633.496094"/>
      </g>
     </g>
    </g>
    <g id="ytick_3">
     <g id="line2d_6">
      <g>
       <use xlink:href="#m8e0826497d" x="69.39375" y="66.369531" style="stroke: #000000; stroke-width: 0.8"/>
      </g>
     </g>
     <g id="text_7">
      <!-- Multimodal -->
      <g transform="translate(22.125 69.369531) scale(0.08 -0.08)">
       <defs>
        <path id="Roboto-Regular-4d" d="M 1303 4550 
L 2791 838 
L 4278 4550 
L 5056 4550 
L 5056 0 
L 4456 0 
L 4456 1772 
L 4513 3684 
L 3019 0 
L 2559 0 
L 1069 3675 
L 1128 1772 
L 1128 0 
L 528 0 
L 528 4550 
L 1303 4550 
z
" transform="scale(0.015625)"/>
       </defs>
       <use xlink:href="#Roboto-Regular-4d"/>
       <use xlink:href="#Roboto-Regular-75" x="87.304688"/>
       <use xlink:href="#Roboto-Regular-6c" x="142.431641"/>
       <use xlink:href="#Roboto-Regular-74" x="166.699219"/>
       <use xlink:href="#Roboto-Regular-69" x="199.365234"/>
       <use xlink:href="#Roboto-Regular-6d" x="223.632812"/>
       <use xlink:href="#Roboto-Regular-6f" x="311.279297"/>
       <use xlink:href="#Roboto-Regular-64" x="368.310547"/>
       <use xlink:href="#Roboto-Regular-61" x="424.707031"/>
       <use xlink:href="#Roboto-Regular-6c" x="479.101562"/>
      </g>
     </g>
    </g>
   </g>
   <g id="line2d_7">
    <path clip-path="url(#p0b223e042c)" style="fill: none; stroke: #424242; stroke-width: 2.25; stroke-linecap: square"/>
   </g>
   <g id="line2d_8">
    <path clip-path="url(#p0b223e042c)" style="fill: none; stroke: #424242; stroke-width: 2.25; stroke-linecap: square"/>
   </g>
   <g id="line2d_9">
    <path clip-path="url(#p0b223e042c)" style="fill: none; stroke: #424242; stroke-width: 2.25; stroke-linecap: square"/>
   </g>
   <g id="LineCollection_1">
    <path d="M 80.890078 19.779349 
L 117.315218 19.779349 
" clip-path="url(#p0b223e042c)" style="fill: none; stroke: #666666; stroke-width: 1.5"/>
   </g>
   <g id="line2d_10">
    <defs>
     <path id="mdc0962372c" d="M 0 5 
L 0 -5 
" style="stroke: #666666"/>
    </defs>
    <g clip-path="url(#p0b223e042c)">
     <use xlink:href="#mdc0962372c" x="80.890078" y="19.779349" style="fill: #666666; stroke: #666666"/>
    </g>
   </g>
   <g id="line2d_11">
    <g clip-path="url(#p0b223e042c)">
     <use xlink:href="#mdc0962372c" x="117.315218" y="19.779349" style="fill: #666666; stroke: #666666"/>
    </g>
   </g>
   <g id="LineCollection_2">
    <path d="M 111.554985 43.07444 
L 153.888052 43.07444 
" clip-path="url(#p0b223e042c)" style="fill: none; stroke: #666666; stroke-width: 1.5"/>
   </g>
   <g id="line2d_12">
    <g clip-path="url(#p0b223e042c)">
     <use xlink:href="#mdc0962372c" x="111.554985" y="43.07444" style="fill: #666666; stroke: #666666"/>
    </g>
   </g>
   <g id="line2d_13">
    <g clip-path="url(#p0b223e042c)">
     <use xlink:href="#mdc0962372c" x="153.888052" y="43.07444" style="fill: #666666; stroke: #666666"/>
    </g>
   </g>
   <g id="LineCollection_3">
    <path d="M 73.417288 66.369531 
L 97.528911 66.369531 
" clip-path="url(#p0b223e042c)" style="fill: none; stroke: #666666; stroke-width: 1.5"/>
   </g>
   <g id="line2d_14">
    <g clip-path="url(#p0b223e042c)">
     <use xlink:href="#mdc0962372c" x="73.417288" y="66.369531" style="fill: #666666; stroke: #666666"/>
    </g>
   </g>
   <g id="line2d_15">
    <g clip-path="url(#p0b223e042c)">
     <use xlink:href="#mdc0962372c" x="97.528911" y="66.369531" style="fill: #666666; stroke: #666666"/>
    </g>
   </g>
   <g id="patch_6">
    <path d="M 69.39375 78.94888 
L 69.39375 7.2 
" style="fill: none; stroke: #000000; stroke-width: 0.8; stroke-linejoin: miter; stroke-linecap: square"/>
   </g>
   <g id="patch_7">
    <path d="M 69.39375 78.94888 
L 157.91159 78.94888 
" style="fill: none; stroke: #000000; stroke-width: 0.8; stroke-linejoin: miter; stroke-linecap: square"/>
   </g>
  </g>
 </g>
 <defs>
  <clipPath id="p0b223e042c">
   <rect x="69.39375" y="7.2" width="88.51784" height="71.74888"/>
  </clipPath>
 </defs>
</svg>
