<?xml version="1.0" encoding="utf-8" standalone="no"?>
<!DOCTYPE svg PUBLIC "-//W3C//DTD SVG 1.1//EN"
  "http://www.w3.org/Graphics/SVG/1.1/DTD/svg11.dtd">
<svg xmlns:xlink="http://www.w3.org/1999/xlink" width="500.23652pt" height="164.984661pt" viewBox="0 0 500.23652 164.984661" xmlns="http://www.w3.org/2000/svg" version="1.1">
 <metadata>
  <rdf:RDF xmlns:dc="http://purl.org/dc/elements/1.1/" xmlns:cc="http://creativecommons.org/ns#" xmlns:rdf="http://www.w3.org/1999/02/22-rdf-syntax-ns#">
   <cc:Work>
    <dc:type rdf:resource="http://purl.org/dc/dcmitype/StillImage"/>
    <dc:date>2025-01-15T16:14:26.442574</dc:date>
    <dc:format>image/svg+xml</dc:format>
    <dc:creator>
     <cc:Agent>
      <dc:title>Matplotlib v3.9.4, https://matplotlib.org/</dc:title>
     </cc:Agent>
    </dc:creator>
   </cc:Work>
  </rdf:RDF>
 </metadata>
 <defs>
  <style type="text/css">*{stroke-linejoin: round; stroke-linecap: butt}</style>
 </defs>
 <g id="figure_1">
  <g id="patch_1">
   <path d="M 0 164.984661 
L 500.23652 164.984661 
L 500.23652 0 
L 0 0 
z
" style="fill: #ffffff"/>
  </g>
  <g id="axes_1">
   <g id="patch_2">
    <path d="M 43.615 108.242466 
L 155.61084 108.242466 
L 155.61084 19.6175 
L 43.615 19.6175 
z
" style="fill: #ffffff"/>
   </g>
   <g id="patch_3">
    <path d="M 47.348195 57.220915 
L 77.213752 57.220915 
L 77.213752 69.749518 
L 47.348195 69.749518 
z
" clip-path="url(#pd56b02f599)" style="fill: #f0cca7; stroke: #666666; stroke-linejoin: miter"/>
   </g>
   <g id="patch_4">
    <path d="M 84.680141 57.220915 
L 114.545699 57.220915 
L 114.545699 82.477578 
L 84.680141 82.477578 
z
" clip-path="url(#pd56b02f599)" style="fill: #f0cca7; stroke: #666666; stroke-linejoin: miter"/>
   </g>
   <g id="patch_5">
    <path d="M 122.012088 57.220915 
L 151.877645 57.220915 
L 151.877645 61.08307 
L 122.012088 61.08307 
z
" clip-path="url(#pd56b02f599)" style="fill: #f0cca7; stroke: #666666; stroke-linejoin: miter"/>
   </g>
   <g id="matplotlib.axis_1">
    <g id="xtick_1">
     <g id="line2d_1">
      <defs>
       <path id="m148b382a33" d="M 0 0 
L 0 3.5 
" style="stroke: #000000; stroke-width: 0.8"/>
      </defs>
      <g>
       <use xlink:href="#m148b382a33" x="62.280973" y="108.242466" style="stroke: #000000; stroke-width: 0.8"/>
      </g>
     </g>
     <g id="text_1">
      <!-- Harmonization -->
      <g transform="translate(45.252516 156.635613) rotate(-45) scale(0.08 -0.08)">
       <defs>
        <path id="Roboto-Regular-48" d="M 4025 0 
L 3422 0 
L 3422 2103 
L 1128 2103 
L 1128 0 
L 528 0 
L 528 4550 
L 1128 4550 
L 1128 2594 
L 3422 2594 
L 3422 4550 
L 4025 4550 
L 4025 0 
z
" transform="scale(0.015625)"/>
        <path id="Roboto-Regular-61" d="M 2525 0 
Q 2475 100 2444 356 
Q 2041 -63 1481 -63 
Q 981 -63 661 220 
Q 341 503 341 938 
Q 341 1466 742 1758 
Q 1144 2050 1872 2050 
L 2434 2050 
L 2434 2316 
Q 2434 2619 2253 2798 
Q 2072 2978 1719 2978 
Q 1409 2978 1200 2822 
Q 991 2666 991 2444 
L 409 2444 
Q 409 2697 589 2933 
Q 769 3169 1076 3306 
Q 1384 3444 1753 3444 
Q 2338 3444 2669 3151 
Q 3000 2859 3013 2347 
L 3013 791 
Q 3013 325 3131 50 
L 3131 0 
L 2525 0 
z
M 1566 441 
Q 1838 441 2081 581 
Q 2325 722 2434 947 
L 2434 1641 
L 1981 1641 
Q 919 1641 919 1019 
Q 919 747 1100 594 
Q 1281 441 1566 441 
z
" transform="scale(0.015625)"/>
        <path id="Roboto-Regular-72" d="M 2072 2863 
Q 1941 2884 1788 2884 
Q 1219 2884 1016 2400 
L 1016 0 
L 438 0 
L 438 3381 
L 1000 3381 
L 1009 2991 
Q 1294 3444 1816 3444 
Q 1984 3444 2072 3400 
L 2072 2863 
z
" transform="scale(0.015625)"/>
        <path id="Roboto-Regular-6d" d="M 981 3381 
L 997 3006 
Q 1369 3444 2000 3444 
Q 2709 3444 2966 2900 
Q 3134 3144 3404 3294 
Q 3675 3444 4044 3444 
Q 5156 3444 5175 2266 
L 5175 0 
L 4597 0 
L 4597 2231 
Q 4597 2594 4431 2773 
Q 4266 2953 3875 2953 
Q 3553 2953 3340 2761 
Q 3128 2569 3094 2244 
L 3094 0 
L 2513 0 
L 2513 2216 
Q 2513 2953 1791 2953 
Q 1222 2953 1013 2469 
L 1013 0 
L 434 0 
L 434 3381 
L 981 3381 
z
" transform="scale(0.015625)"/>
        <path id="Roboto-Regular-6f" d="M 284 1722 
Q 284 2219 479 2616 
Q 675 3013 1023 3228 
Q 1372 3444 1819 3444 
Q 2509 3444 2936 2966 
Q 3363 2488 3363 1694 
L 3363 1653 
Q 3363 1159 3173 767 
Q 2984 375 2632 156 
Q 2281 -63 1825 -63 
Q 1138 -63 711 415 
Q 284 894 284 1681 
L 284 1722 
z
M 866 1653 
Q 866 1091 1127 750 
Q 1388 409 1825 409 
Q 2266 409 2525 754 
Q 2784 1100 2784 1722 
Q 2784 2278 2520 2623 
Q 2256 2969 1819 2969 
Q 1391 2969 1128 2628 
Q 866 2288 866 1653 
z
" transform="scale(0.015625)"/>
        <path id="Roboto-Regular-6e" d="M 984 3381 
L 1003 2956 
Q 1391 3444 2016 3444 
Q 3088 3444 3097 2234 
L 3097 0 
L 2519 0 
L 2519 2238 
Q 2516 2603 2352 2778 
Q 2188 2953 1841 2953 
Q 1559 2953 1346 2803 
Q 1134 2653 1016 2409 
L 1016 0 
L 438 0 
L 438 3381 
L 984 3381 
z
" transform="scale(0.015625)"/>
        <path id="Roboto-Regular-69" d="M 1066 0 
L 488 0 
L 488 3381 
L 1066 3381 
L 1066 0 
z
M 441 4278 
Q 441 4419 527 4516 
Q 613 4613 781 4613 
Q 950 4613 1037 4516 
Q 1125 4419 1125 4278 
Q 1125 4138 1037 4044 
Q 950 3950 781 3950 
Q 613 3950 527 4044 
Q 441 4138 441 4278 
z
" transform="scale(0.015625)"/>
        <path id="Roboto-Regular-7a" d="M 981 472 
L 2959 472 
L 2959 0 
L 275 0 
L 275 425 
L 2141 2903 
L 303 2903 
L 303 3381 
L 2866 3381 
L 2866 2972 
L 981 472 
z
" transform="scale(0.015625)"/>
        <path id="Roboto-Regular-74" d="M 1222 4200 
L 1222 3381 
L 1853 3381 
L 1853 2934 
L 1222 2934 
L 1222 838 
Q 1222 634 1306 532 
Q 1391 431 1594 431 
Q 1694 431 1869 469 
L 1869 0 
Q 1641 -63 1425 -63 
Q 1038 -63 841 171 
Q 644 406 644 838 
L 644 2934 
L 28 2934 
L 28 3381 
L 644 3381 
L 644 4200 
L 1222 4200 
z
" transform="scale(0.015625)"/>
       </defs>
       <use xlink:href="#Roboto-Regular-48"/>
       <use xlink:href="#Roboto-Regular-61" x="71.289062"/>
       <use xlink:href="#Roboto-Regular-72" x="125.683594"/>
       <use xlink:href="#Roboto-Regular-6d" x="159.521484"/>
       <use xlink:href="#Roboto-Regular-6f" x="247.167969"/>
       <use xlink:href="#Roboto-Regular-6e" x="304.199219"/>
       <use xlink:href="#Roboto-Regular-69" x="359.375"/>
       <use xlink:href="#Roboto-Regular-7a" x="383.642578"/>
       <use xlink:href="#Roboto-Regular-61" x="433.203125"/>
       <use xlink:href="#Roboto-Regular-74" x="487.597656"/>
       <use xlink:href="#Roboto-Regular-69" x="520.263672"/>
       <use xlink:href="#Roboto-Regular-6f" x="544.53125"/>
       <use xlink:href="#Roboto-Regular-6e" x="601.5625"/>
      </g>
     </g>
    </g>
    <g id="xtick_2">
     <g id="line2d_2">
      <g>
       <use xlink:href="#m148b382a33" x="99.61292" y="108.242466" style="stroke: #000000; stroke-width: 0.8"/>
      </g>
     </g>
     <g id="text_2">
      <!-- DreamSim -->
      <g transform="translate(87.988526 145.827486) rotate(-45) scale(0.08 -0.08)">
       <defs>
        <path id="Roboto-Regular-44" d="M 528 0 
L 528 4550 
L 1813 4550 
Q 2406 4550 2862 4287 
Q 3319 4025 3567 3540 
Q 3816 3056 3819 2428 
L 3819 2138 
Q 3819 1494 3570 1009 
Q 3322 525 2861 265 
Q 2400 6 1788 0 
L 528 0 
z
M 1128 4056 
L 1128 491 
L 1759 491 
Q 2453 491 2839 922 
Q 3225 1353 3225 2150 
L 3225 2416 
Q 3225 3191 2861 3620 
Q 2497 4050 1828 4056 
L 1128 4056 
z
" transform="scale(0.015625)"/>
        <path id="Roboto-Regular-65" d="M 1841 -63 
Q 1153 -63 722 389 
Q 291 841 291 1597 
L 291 1703 
Q 291 2206 483 2601 
Q 675 2997 1020 3220 
Q 1366 3444 1769 3444 
Q 2428 3444 2793 3009 
Q 3159 2575 3159 1766 
L 3159 1525 
L 869 1525 
Q 881 1025 1161 717 
Q 1441 409 1872 409 
Q 2178 409 2390 534 
Q 2603 659 2763 866 
L 3116 591 
Q 2691 -63 1841 -63 
z
M 1769 2969 
Q 1419 2969 1181 2714 
Q 944 2459 888 2000 
L 2581 2000 
L 2581 2044 
Q 2556 2484 2343 2726 
Q 2131 2969 1769 2969 
z
" transform="scale(0.015625)"/>
        <path id="Roboto-Regular-53" d="M 1869 2028 
Q 1097 2250 745 2573 
Q 394 2897 394 3372 
Q 394 3909 823 4261 
Q 1253 4613 1941 4613 
Q 2409 4613 2776 4431 
Q 3144 4250 3345 3931 
Q 3547 3613 3547 3234 
L 2944 3234 
Q 2944 3647 2681 3883 
Q 2419 4119 1941 4119 
Q 1497 4119 1248 3923 
Q 1000 3728 1000 3381 
Q 1000 3103 1236 2911 
Q 1472 2719 2039 2559 
Q 2606 2400 2926 2208 
Q 3247 2016 3401 1759 
Q 3556 1503 3556 1156 
Q 3556 603 3125 270 
Q 2694 -63 1972 -63 
Q 1503 -63 1097 117 
Q 691 297 470 609 
Q 250 922 250 1319 
L 853 1319 
Q 853 906 1158 667 
Q 1463 428 1972 428 
Q 2447 428 2700 622 
Q 2953 816 2953 1150 
Q 2953 1484 2718 1667 
Q 2484 1850 1869 2028 
z
" transform="scale(0.015625)"/>
       </defs>
       <use xlink:href="#Roboto-Regular-44"/>
       <use xlink:href="#Roboto-Regular-72" x="65.576172"/>
       <use xlink:href="#Roboto-Regular-65" x="99.414062"/>
       <use xlink:href="#Roboto-Regular-61" x="152.392578"/>
       <use xlink:href="#Roboto-Regular-6d" x="206.787109"/>
       <use xlink:href="#Roboto-Regular-53" x="294.433594"/>
       <use xlink:href="#Roboto-Regular-69" x="353.759766"/>
       <use xlink:href="#Roboto-Regular-6d" x="378.027344"/>
      </g>
     </g>
    </g>
    <g id="xtick_3">
     <g id="line2d_3">
      <g>
       <use xlink:href="#m148b382a33" x="136.944867" y="108.242466" style="stroke: #000000; stroke-width: 0.8"/>
      </g>
     </g>
     <g id="text_3">
      <!-- gLocal -->
      <g transform="translate(130.050576 136.33988) rotate(-45) scale(0.08 -0.08)">
       <defs>
        <path id="Roboto-Regular-67" d="M 300 1719 
Q 300 2509 665 2976 
Q 1031 3444 1634 3444 
Q 2253 3444 2600 3006 
L 2628 3381 
L 3156 3381 
L 3156 81 
Q 3156 -575 2767 -953 
Q 2378 -1331 1722 -1331 
Q 1356 -1331 1006 -1175 
Q 656 -1019 472 -747 
L 772 -400 
Q 1144 -859 1681 -859 
Q 2103 -859 2339 -621 
Q 2575 -384 2575 47 
L 2575 338 
Q 2228 -63 1628 -63 
Q 1034 -63 667 415 
Q 300 894 300 1719 
z
M 881 1653 
Q 881 1081 1115 754 
Q 1350 428 1772 428 
Q 2319 428 2575 925 
L 2575 2469 
Q 2309 2953 1778 2953 
Q 1356 2953 1118 2625 
Q 881 2297 881 1653 
z
" transform="scale(0.015625)"/>
        <path id="Roboto-Regular-4c" d="M 1131 491 
L 3288 491 
L 3288 0 
L 528 0 
L 528 4550 
L 1131 4550 
L 1131 491 
z
" transform="scale(0.015625)"/>
        <path id="Roboto-Regular-63" d="M 1794 409 
Q 2103 409 2334 596 
Q 2566 784 2591 1066 
L 3138 1066 
Q 3122 775 2937 512 
Q 2753 250 2445 93 
Q 2138 -63 1794 -63 
Q 1103 -63 695 398 
Q 288 859 288 1659 
L 288 1756 
Q 288 2250 469 2634 
Q 650 3019 989 3231 
Q 1328 3444 1791 3444 
Q 2359 3444 2736 3103 
Q 3113 2763 3138 2219 
L 2591 2219 
Q 2566 2547 2342 2758 
Q 2119 2969 1791 2969 
Q 1350 2969 1108 2651 
Q 866 2334 866 1734 
L 866 1625 
Q 866 1041 1106 725 
Q 1347 409 1794 409 
z
" transform="scale(0.015625)"/>
        <path id="Roboto-Regular-6c" d="M 1066 0 
L 488 0 
L 488 4800 
L 1066 4800 
L 1066 0 
z
" transform="scale(0.015625)"/>
       </defs>
       <use xlink:href="#Roboto-Regular-67"/>
       <use xlink:href="#Roboto-Regular-4c" x="56.103516"/>
       <use xlink:href="#Roboto-Regular-6f" x="109.912109"/>
       <use xlink:href="#Roboto-Regular-63" x="166.943359"/>
       <use xlink:href="#Roboto-Regular-61" x="219.287109"/>
       <use xlink:href="#Roboto-Regular-6c" x="273.681641"/>
      </g>
     </g>
    </g>
   </g>
   <g id="matplotlib.axis_2">
    <g id="ytick_1">
     <g id="line2d_4">
      <defs>
       <path id="mdd0be731d3" d="M 0 0 
L -3.5 0 
" style="stroke: #000000; stroke-width: 0.8"/>
      </defs>
      <g>
       <use xlink:href="#mdd0be731d3" x="43.615" y="95.523095" style="stroke: #000000; stroke-width: 0.8"/>
      </g>
     </g>
     <g id="text_4">
      <!-- -0.05 -->
      <g transform="translate(18.825 98.523095) scale(0.08 -0.08)">
       <defs>
        <path id="Roboto-Regular-2d" d="M 1641 1697 
L 116 1697 
L 116 2169 
L 1641 2169 
L 1641 1697 
z
" transform="scale(0.015625)"/>
        <path id="Roboto-Regular-30" d="M 3231 1941 
Q 3231 925 2884 431 
Q 2538 -63 1800 -63 
Q 1072 -63 722 420 
Q 372 903 359 1863 
L 359 2634 
Q 359 3638 706 4125 
Q 1053 4613 1794 4613 
Q 2528 4613 2875 4142 
Q 3222 3672 3231 2691 
L 3231 1941 
z
M 2653 2731 
Q 2653 3466 2447 3802 
Q 2241 4138 1794 4138 
Q 1350 4138 1147 3803 
Q 944 3469 938 2775 
L 938 1850 
Q 938 1113 1152 761 
Q 1366 409 1800 409 
Q 2228 409 2436 740 
Q 2644 1072 2653 1784 
L 2653 2731 
z
" transform="scale(0.015625)"/>
        <path id="Roboto-Regular-2e" d="M 450 303 
Q 450 453 539 553 
Q 628 653 806 653 
Q 984 653 1076 553 
Q 1169 453 1169 303 
Q 1169 159 1076 62 
Q 984 -34 806 -34 
Q 628 -34 539 62 
Q 450 159 450 303 
z
" transform="scale(0.015625)"/>
        <path id="Roboto-Regular-35" d="M 644 2281 
L 875 4550 
L 3206 4550 
L 3206 4016 
L 1366 4016 
L 1228 2775 
Q 1563 2972 1988 2972 
Q 2609 2972 2975 2561 
Q 3341 2150 3341 1450 
Q 3341 747 2961 342 
Q 2581 -63 1900 -63 
Q 1297 -63 915 271 
Q 534 606 481 1197 
L 1028 1197 
Q 1081 806 1306 607 
Q 1531 409 1900 409 
Q 2303 409 2533 684 
Q 2763 959 2763 1444 
Q 2763 1900 2514 2176 
Q 2266 2453 1853 2453 
Q 1475 2453 1259 2288 
L 1106 2163 
L 644 2281 
z
" transform="scale(0.015625)"/>
       </defs>
       <use xlink:href="#Roboto-Regular-2d"/>
       <use xlink:href="#Roboto-Regular-30" x="27.587891"/>
       <use xlink:href="#Roboto-Regular-2e" x="83.740234"/>
       <use xlink:href="#Roboto-Regular-30" x="110.058594"/>
       <use xlink:href="#Roboto-Regular-35" x="166.210938"/>
      </g>
     </g>
    </g>
    <g id="ytick_2">
     <g id="line2d_5">
      <g>
       <use xlink:href="#mdd0be731d3" x="43.615" y="76.372005" style="stroke: #000000; stroke-width: 0.8"/>
      </g>
     </g>
     <g id="text_5">
      <!-- -0.03 -->
      <g transform="translate(18.825 79.372005) scale(0.08 -0.08)">
       <defs>
        <path id="Roboto-Regular-33" d="M 1219 2556 
L 1653 2556 
Q 2063 2563 2297 2772 
Q 2531 2981 2531 3338 
Q 2531 4138 1734 4138 
Q 1359 4138 1136 3923 
Q 913 3709 913 3356 
L 334 3356 
Q 334 3897 729 4255 
Q 1125 4613 1734 4613 
Q 2378 4613 2743 4272 
Q 3109 3931 3109 3325 
Q 3109 3028 2917 2750 
Q 2725 2472 2394 2334 
Q 2769 2216 2973 1941 
Q 3178 1666 3178 1269 
Q 3178 656 2778 296 
Q 2378 -63 1737 -63 
Q 1097 -63 695 284 
Q 294 631 294 1200 
L 875 1200 
Q 875 841 1109 625 
Q 1344 409 1738 409 
Q 2156 409 2378 628 
Q 2600 847 2600 1256 
Q 2600 1653 2356 1865 
Q 2113 2078 1653 2084 
L 1219 2084 
L 1219 2556 
z
" transform="scale(0.015625)"/>
       </defs>
       <use xlink:href="#Roboto-Regular-2d"/>
       <use xlink:href="#Roboto-Regular-30" x="27.587891"/>
       <use xlink:href="#Roboto-Regular-2e" x="83.740234"/>
       <use xlink:href="#Roboto-Regular-30" x="110.058594"/>
       <use xlink:href="#Roboto-Regular-33" x="166.210938"/>
      </g>
     </g>
    </g>
    <g id="ytick_3">
     <g id="line2d_6">
      <g>
       <use xlink:href="#mdd0be731d3" x="43.615" y="57.220915" style="stroke: #000000; stroke-width: 0.8"/>
      </g>
     </g>
     <g id="text_6">
      <!-- 0.00 -->
      <g transform="translate(21.0325 60.220915) scale(0.08 -0.08)">
       <use xlink:href="#Roboto-Regular-30"/>
       <use xlink:href="#Roboto-Regular-2e" x="56.152344"/>
       <use xlink:href="#Roboto-Regular-30" x="82.470703"/>
       <use xlink:href="#Roboto-Regular-30" x="138.623047"/>
      </g>
     </g>
    </g>
    <g id="ytick_4">
     <g id="line2d_7">
      <g>
       <use xlink:href="#mdd0be731d3" x="43.615" y="38.069824" style="stroke: #000000; stroke-width: 0.8"/>
      </g>
     </g>
     <g id="text_7">
      <!-- 0.02 -->
      <g transform="translate(21.0325 41.069824) scale(0.08 -0.08)">
       <defs>
        <path id="Roboto-Regular-32" d="M 3359 0 
L 378 0 
L 378 416 
L 1953 2166 
Q 2303 2563 2436 2811 
Q 2569 3059 2569 3325 
Q 2569 3681 2353 3909 
Q 2138 4138 1778 4138 
Q 1347 4138 1108 3892 
Q 869 3647 869 3209 
L 291 3209 
Q 291 3838 695 4225 
Q 1100 4613 1778 4613 
Q 2413 4613 2781 4280 
Q 3150 3947 3150 3394 
Q 3150 2722 2294 1794 
L 1075 472 
L 3359 472 
L 3359 0 
z
" transform="scale(0.015625)"/>
       </defs>
       <use xlink:href="#Roboto-Regular-30"/>
       <use xlink:href="#Roboto-Regular-2e" x="56.152344"/>
       <use xlink:href="#Roboto-Regular-30" x="82.470703"/>
       <use xlink:href="#Roboto-Regular-32" x="138.623047"/>
      </g>
     </g>
    </g>
    <g id="text_8">
     <!-- $\Delta$ McFadden's $R^2$ -->
     <g transform="translate(13.2 95.169983) rotate(-90) scale(0.08 -0.08)">
      <defs>
       <path id="DejaVuSans-394" d="M 2188 4044 
L 906 525 
L 3472 525 
L 2188 4044 
z
M 50 0 
L 1831 4666 
L 2547 4666 
L 4325 0 
L 50 0 
z
" transform="scale(0.015625)"/>
       <path id="Roboto-Regular-20" transform="scale(0.015625)"/>
       <path id="Roboto-Regular-4d" d="M 1303 4550 
L 2791 838 
L 4278 4550 
L 5056 4550 
L 5056 0 
L 4456 0 
L 4456 1772 
L 4513 3684 
L 3019 0 
L 2559 0 
L 1069 3675 
L 1128 1772 
L 1128 0 
L 528 0 
L 528 4550 
L 1303 4550 
z
" transform="scale(0.015625)"/>
       <path id="Roboto-Regular-46" d="M 3038 2009 
L 1128 2009 
L 1128 0 
L 528 0 
L 528 4550 
L 3347 4550 
L 3347 4056 
L 1128 4056 
L 1128 2500 
L 3038 2500 
L 3038 2009 
z
" transform="scale(0.015625)"/>
       <path id="Roboto-Regular-64" d="M 297 1719 
Q 297 2497 665 2970 
Q 1034 3444 1631 3444 
Q 2225 3444 2572 3038 
L 2572 4800 
L 3150 4800 
L 3150 0 
L 2619 0 
L 2591 363 
Q 2244 -63 1625 -63 
Q 1038 -63 667 418 
Q 297 900 297 1675 
L 297 1719 
z
M 875 1653 
Q 875 1078 1112 753 
Q 1350 428 1769 428 
Q 2319 428 2572 922 
L 2572 2475 
Q 2313 2953 1775 2953 
Q 1350 2953 1112 2625 
Q 875 2297 875 1653 
z
" transform="scale(0.015625)"/>
       <path id="Roboto-Regular-27" d="M 791 4453 
L 725 3303 
L 322 3303 
L 325 4800 
L 791 4800 
L 791 4453 
z
" transform="scale(0.015625)"/>
       <path id="Roboto-Regular-73" d="M 2406 897 
Q 2406 1131 2229 1261 
Q 2053 1391 1614 1484 
Q 1175 1578 917 1709 
Q 659 1841 536 2022 
Q 413 2203 413 2453 
Q 413 2869 764 3156 
Q 1116 3444 1663 3444 
Q 2238 3444 2595 3147 
Q 2953 2850 2953 2388 
L 2372 2388 
Q 2372 2625 2170 2797 
Q 1969 2969 1663 2969 
Q 1347 2969 1169 2831 
Q 991 2694 991 2472 
Q 991 2263 1156 2156 
Q 1322 2050 1755 1953 
Q 2188 1856 2456 1722 
Q 2725 1588 2854 1398 
Q 2984 1209 2984 938 
Q 2984 484 2621 210 
Q 2259 -63 1681 -63 
Q 1275 -63 962 81 
Q 650 225 473 483 
Q 297 741 297 1041 
L 875 1041 
Q 891 750 1108 579 
Q 1325 409 1681 409 
Q 2009 409 2207 542 
Q 2406 675 2406 897 
z
" transform="scale(0.015625)"/>
       <path id="DejaVuSans-Oblique-52" d="M 1613 4147 
L 1294 2491 
L 2106 2491 
Q 2584 2491 2879 2755 
Q 3175 3019 3175 3444 
Q 3175 3784 2976 3965 
Q 2778 4147 2406 4147 
L 1613 4147 
z
M 2772 2241 
Q 2972 2194 3105 2009 
Q 3238 1825 3413 1275 
L 3809 0 
L 3144 0 
L 2778 1197 
Q 2638 1659 2453 1815 
Q 2269 1972 1888 1972 
L 1191 1972 
L 806 0 
L 172 0 
L 1081 4666 
L 2503 4666 
Q 3150 4666 3495 4373 
Q 3841 4081 3841 3531 
Q 3841 3044 3547 2687 
Q 3253 2331 2772 2241 
z
" transform="scale(0.015625)"/>
       <path id="DejaVuSans-32" d="M 1228 531 
L 3431 531 
L 3431 0 
L 469 0 
L 469 531 
Q 828 903 1448 1529 
Q 2069 2156 2228 2338 
Q 2531 2678 2651 2914 
Q 2772 3150 2772 3378 
Q 2772 3750 2511 3984 
Q 2250 4219 1831 4219 
Q 1534 4219 1204 4116 
Q 875 4013 500 3803 
L 500 4441 
Q 881 4594 1212 4672 
Q 1544 4750 1819 4750 
Q 2544 4750 2975 4387 
Q 3406 4025 3406 3419 
Q 3406 3131 3298 2873 
Q 3191 2616 2906 2266 
Q 2828 2175 2409 1742 
Q 1991 1309 1228 531 
z
" transform="scale(0.015625)"/>
      </defs>
      <use xlink:href="#DejaVuSans-394" transform="translate(0 0.765625)"/>
      <use xlink:href="#Roboto-Regular-20" transform="translate(68.408203 0.765625)"/>
      <use xlink:href="#Roboto-Regular-4d" transform="translate(93.164062 0.765625)"/>
      <use xlink:href="#Roboto-Regular-63" transform="translate(180.46875 0.765625)"/>
      <use xlink:href="#Roboto-Regular-46" transform="translate(232.8125 0.765625)"/>
      <use xlink:href="#Roboto-Regular-61" transform="translate(288.085938 0.765625)"/>
      <use xlink:href="#Roboto-Regular-64" transform="translate(342.480469 0.765625)"/>
      <use xlink:href="#Roboto-Regular-64" transform="translate(398.876953 0.765625)"/>
      <use xlink:href="#Roboto-Regular-65" transform="translate(455.273438 0.765625)"/>
      <use xlink:href="#Roboto-Regular-6e" transform="translate(508.251953 0.765625)"/>
      <use xlink:href="#Roboto-Regular-27" transform="translate(563.427734 0.765625)"/>
      <use xlink:href="#Roboto-Regular-73" transform="translate(580.859375 0.765625)"/>
      <use xlink:href="#Roboto-Regular-20" transform="translate(632.421875 0.765625)"/>
      <use xlink:href="#DejaVuSans-Oblique-52" transform="translate(657.177734 0.765625)"/>
      <use xlink:href="#DejaVuSans-32" transform="translate(733.676927 39.046875) scale(0.7)"/>
     </g>
    </g>
   </g>
   <g id="patch_6">
    <path d="M 43.615 108.242466 
L 43.615 19.6175 
" style="fill: none; stroke: #000000; stroke-width: 0.8; stroke-linejoin: miter; stroke-linecap: square"/>
   </g>
   <g id="patch_7">
    <path d="M 43.615 108.242466 
L 155.61084 108.242466 
" style="fill: none; stroke: #000000; stroke-width: 0.8; stroke-linejoin: miter; stroke-linecap: square"/>
   </g>
   <g id="PathCollection_1">
    <defs>
     <path id="m9ea3325e9c" d="M 0 2.5 
C 0.663008 2.5 1.29895 2.236584 1.767767 1.767767 
C 2.236584 1.29895 2.5 0.663008 2.5 0 
C 2.5 -0.663008 2.236584 -1.29895 1.767767 -1.767767 
C 1.29895 -2.236584 0.663008 -2.5 0 -2.5 
C -0.663008 -2.5 -1.29895 -2.236584 -1.767767 -1.767767 
C -2.236584 -1.29895 -2.5 -0.663008 -2.5 0 
C -2.5 0.663008 -2.236584 1.29895 -1.767767 1.767767 
C -1.29895 2.236584 -0.663008 2.5 0 2.5 
z
"/>
    </defs>
    <g clip-path="url(#pd56b02f599)">
     <use xlink:href="#m9ea3325e9c" x="64.425634" y="86.574085" style="fill: #666666; fill-opacity: 0.8"/>
     <use xlink:href="#m9ea3325e9c" x="59.079693" y="76.875252" style="fill: #666666; fill-opacity: 0.8"/>
     <use xlink:href="#m9ea3325e9c" x="61.914839" y="92.264147" style="fill: #666666; fill-opacity: 0.8"/>
     <use xlink:href="#m9ea3325e9c" x="65.156536" y="62.1182" style="fill: #666666; fill-opacity: 0.8"/>
     <use xlink:href="#m9ea3325e9c" x="59.150332" y="48.06175" style="fill: #666666; fill-opacity: 0.8"/>
     <use xlink:href="#m9ea3325e9c" x="60.627318" y="67.839248" style="fill: #666666; fill-opacity: 0.8"/>
     <use xlink:href="#m9ea3325e9c" x="61.573633" y="54.513947" style="fill: #666666; fill-opacity: 0.8"/>
    </g>
   </g>
   <g id="PathCollection_2">
    <g clip-path="url(#pd56b02f599)">
     <use xlink:href="#m9ea3325e9c" x="102.303375" y="91.588792" style="fill: #666666; fill-opacity: 0.8"/>
     <use xlink:href="#m9ea3325e9c" x="102.055292" y="104.214058" style="fill: #666666; fill-opacity: 0.8"/>
     <use xlink:href="#m9ea3325e9c" x="100.550529" y="51.629885" style="fill: #666666; fill-opacity: 0.8"/>
    </g>
   </g>
   <g id="PathCollection_3">
    <g clip-path="url(#pd56b02f599)">
     <use xlink:href="#m9ea3325e9c" x="140.454709" y="73.056046" style="fill: #666666; fill-opacity: 0.8"/>
     <use xlink:href="#m9ea3325e9c" x="133.750715" y="83.697602" style="fill: #666666; fill-opacity: 0.8"/>
     <use xlink:href="#m9ea3325e9c" x="133.637237" y="61.986643" style="fill: #666666; fill-opacity: 0.8"/>
     <use xlink:href="#m9ea3325e9c" x="135.594667" y="23.645908" style="fill: #666666; fill-opacity: 0.8"/>
     <use xlink:href="#m9ea3325e9c" x="134.536537" y="75.859086" style="fill: #666666; fill-opacity: 0.8"/>
     <use xlink:href="#m9ea3325e9c" x="137.408322" y="62.290332" style="fill: #666666; fill-opacity: 0.8"/>
     <use xlink:href="#m9ea3325e9c" x="133.269023" y="47.045872" style="fill: #666666; fill-opacity: 0.8"/>
    </g>
   </g>
   <g id="text_9">
    <!-- A -->
    <g transform="translate(38.015208 15.186252) scale(0.08 -0.08)">
     <defs>
      <path id="Roboto-Bold-41" d="M 2975 938 
L 1331 938 
L 1019 0 
L 22 0 
L 1716 4550 
L 2584 4550 
L 4288 0 
L 3291 0 
L 2975 938 
z
M 1584 1697 
L 2722 1697 
L 2150 3400 
L 1584 1697 
z
" transform="scale(0.015625)"/>
     </defs>
     <use xlink:href="#Roboto-Bold-41"/>
    </g>
   </g>
   <g id="text_10">
    <!-- Our Task -->
    <g transform="translate(83.66167 13.6175) scale(0.08 -0.08)">
     <defs>
      <path id="Roboto-Regular-4f" d="M 4028 2128 
Q 4028 1459 3803 961 
Q 3578 463 3165 200 
Q 2753 -63 2203 -63 
Q 1666 -63 1250 201 
Q 834 466 604 955 
Q 375 1444 369 2088 
L 369 2416 
Q 369 3072 597 3575 
Q 825 4078 1242 4345 
Q 1659 4613 2197 4613 
Q 2744 4613 3161 4348 
Q 3578 4084 3803 3582 
Q 4028 3081 4028 2416 
L 4028 2128 
z
M 3431 2422 
Q 3431 3231 3106 3664 
Q 2781 4097 2197 4097 
Q 1628 4097 1301 3664 
Q 975 3231 966 2463 
L 966 2128 
Q 966 1344 1295 895 
Q 1625 447 2203 447 
Q 2784 447 3103 870 
Q 3422 1294 3431 2084 
L 3431 2422 
z
" transform="scale(0.015625)"/>
      <path id="Roboto-Regular-75" d="M 2525 334 
Q 2188 -63 1534 -63 
Q 994 -63 711 251 
Q 428 566 425 1181 
L 425 3381 
L 1003 3381 
L 1003 1197 
Q 1003 428 1628 428 
Q 2291 428 2509 922 
L 2509 3381 
L 3088 3381 
L 3088 0 
L 2538 0 
L 2525 334 
z
" transform="scale(0.015625)"/>
      <path id="Roboto-Regular-54" d="M 3672 4056 
L 2209 4056 
L 2209 0 
L 1613 0 
L 1613 4056 
L 153 4056 
L 153 4550 
L 3672 4550 
L 3672 4056 
z
" transform="scale(0.015625)"/>
      <path id="Roboto-Regular-6b" d="M 1381 1566 
L 1019 1188 
L 1019 0 
L 441 0 
L 441 4800 
L 1019 4800 
L 1019 1897 
L 1328 2269 
L 2381 3381 
L 3084 3381 
L 1769 1969 
L 3238 0 
L 2559 0 
L 1381 1566 
z
" transform="scale(0.015625)"/>
     </defs>
     <use xlink:href="#Roboto-Regular-4f"/>
     <use xlink:href="#Roboto-Regular-75" x="68.75"/>
     <use xlink:href="#Roboto-Regular-72" x="123.876953"/>
     <use xlink:href="#Roboto-Regular-20" x="157.714844"/>
     <use xlink:href="#Roboto-Regular-54" x="182.470703"/>
     <use xlink:href="#Roboto-Regular-61" x="242.138672"/>
     <use xlink:href="#Roboto-Regular-73" x="296.533203"/>
     <use xlink:href="#Roboto-Regular-6b" x="348.095703"/>
    </g>
   </g>
  </g>
  <g id="axes_2">
   <g id="patch_8">
    <path d="M 212.32784 108.242466 
L 324.32368 108.242466 
L 324.32368 19.6175 
L 212.32784 19.6175 
z
" style="fill: #ffffff"/>
   </g>
   <g id="patch_9">
    <path d="M 216.061035 82.65345 
L 245.926592 82.65345 
L 245.926592 77.419154 
L 216.061035 77.419154 
z
" clip-path="url(#pb4297fa0e2)" style="fill: #f0cca7; stroke: #666666; stroke-linejoin: miter"/>
   </g>
   <g id="patch_10">
    <path d="M 253.392981 82.65345 
L 283.258539 82.65345 
L 283.258539 81.318384 
L 253.392981 81.318384 
z
" clip-path="url(#pb4297fa0e2)" style="fill: #f0cca7; stroke: #666666; stroke-linejoin: miter"/>
   </g>
   <g id="patch_11">
    <path d="M 290.724928 82.65345 
L 320.590485 82.65345 
L 320.590485 85.94942 
L 290.724928 85.94942 
z
" clip-path="url(#pb4297fa0e2)" style="fill: #f0cca7; stroke: #666666; stroke-linejoin: miter"/>
   </g>
   <g id="matplotlib.axis_3">
    <g id="xtick_4">
     <g id="line2d_8">
      <g>
       <use xlink:href="#m148b382a33" x="230.993813" y="108.242466" style="stroke: #000000; stroke-width: 0.8"/>
      </g>
     </g>
     <g id="text_11">
      <!-- Harmonization -->
      <g transform="translate(213.965356 156.635613) rotate(-45) scale(0.08 -0.08)">
       <use xlink:href="#Roboto-Regular-48"/>
       <use xlink:href="#Roboto-Regular-61" x="71.289062"/>
       <use xlink:href="#Roboto-Regular-72" x="125.683594"/>
       <use xlink:href="#Roboto-Regular-6d" x="159.521484"/>
       <use xlink:href="#Roboto-Regular-6f" x="247.167969"/>
       <use xlink:href="#Roboto-Regular-6e" x="304.199219"/>
       <use xlink:href="#Roboto-Regular-69" x="359.375"/>
       <use xlink:href="#Roboto-Regular-7a" x="383.642578"/>
       <use xlink:href="#Roboto-Regular-61" x="433.203125"/>
       <use xlink:href="#Roboto-Regular-74" x="487.597656"/>
       <use xlink:href="#Roboto-Regular-69" x="520.263672"/>
       <use xlink:href="#Roboto-Regular-6f" x="544.53125"/>
       <use xlink:href="#Roboto-Regular-6e" x="601.5625"/>
      </g>
     </g>
    </g>
    <g id="xtick_5">
     <g id="line2d_9">
      <g>
       <use xlink:href="#m148b382a33" x="268.32576" y="108.242466" style="stroke: #000000; stroke-width: 0.8"/>
      </g>
     </g>
     <g id="text_12">
      <!-- DreamSim -->
      <g transform="translate(256.701366 145.827486) rotate(-45) scale(0.08 -0.08)">
       <use xlink:href="#Roboto-Regular-44"/>
       <use xlink:href="#Roboto-Regular-72" x="65.576172"/>
       <use xlink:href="#Roboto-Regular-65" x="99.414062"/>
       <use xlink:href="#Roboto-Regular-61" x="152.392578"/>
       <use xlink:href="#Roboto-Regular-6d" x="206.787109"/>
       <use xlink:href="#Roboto-Regular-53" x="294.433594"/>
       <use xlink:href="#Roboto-Regular-69" x="353.759766"/>
       <use xlink:href="#Roboto-Regular-6d" x="378.027344"/>
      </g>
     </g>
    </g>
    <g id="xtick_6">
     <g id="line2d_10">
      <g>
       <use xlink:href="#m148b382a33" x="305.657707" y="108.242466" style="stroke: #000000; stroke-width: 0.8"/>
      </g>
     </g>
     <g id="text_13">
      <!-- gLocal -->
      <g transform="translate(298.763416 136.33988) rotate(-45) scale(0.08 -0.08)">
       <use xlink:href="#Roboto-Regular-67"/>
       <use xlink:href="#Roboto-Regular-4c" x="56.103516"/>
       <use xlink:href="#Roboto-Regular-6f" x="109.912109"/>
       <use xlink:href="#Roboto-Regular-63" x="166.943359"/>
       <use xlink:href="#Roboto-Regular-61" x="219.287109"/>
       <use xlink:href="#Roboto-Regular-6c" x="273.681641"/>
      </g>
     </g>
    </g>
   </g>
   <g id="matplotlib.axis_4">
    <g id="ytick_5">
     <g id="line2d_11">
      <g>
       <use xlink:href="#mdd0be731d3" x="212.32784" y="104.61472" style="stroke: #000000; stroke-width: 0.8"/>
      </g>
     </g>
     <g id="text_14">
      <!-- -0.10 -->
      <g transform="translate(187.53784 107.61472) scale(0.08 -0.08)">
       <defs>
        <path id="Roboto-Regular-31" d="M 2278 0 
L 1697 0 
L 1697 3853 
L 531 3425 
L 531 3950 
L 2188 4572 
L 2278 4572 
L 2278 0 
z
" transform="scale(0.015625)"/>
       </defs>
       <use xlink:href="#Roboto-Regular-2d"/>
       <use xlink:href="#Roboto-Regular-30" x="27.587891"/>
       <use xlink:href="#Roboto-Regular-2e" x="83.740234"/>
       <use xlink:href="#Roboto-Regular-31" x="110.058594"/>
       <use xlink:href="#Roboto-Regular-30" x="166.210938"/>
      </g>
     </g>
    </g>
    <g id="ytick_6">
     <g id="line2d_12">
      <g>
       <use xlink:href="#mdd0be731d3" x="212.32784" y="82.65345" style="stroke: #000000; stroke-width: 0.8"/>
      </g>
     </g>
     <g id="text_15">
      <!-- 0.00 -->
      <g transform="translate(189.74534 85.65345) scale(0.08 -0.08)">
       <use xlink:href="#Roboto-Regular-30"/>
       <use xlink:href="#Roboto-Regular-2e" x="56.152344"/>
       <use xlink:href="#Roboto-Regular-30" x="82.470703"/>
       <use xlink:href="#Roboto-Regular-30" x="138.623047"/>
      </g>
     </g>
    </g>
    <g id="ytick_7">
     <g id="line2d_13">
      <g>
       <use xlink:href="#mdd0be731d3" x="212.32784" y="60.692181" style="stroke: #000000; stroke-width: 0.8"/>
      </g>
     </g>
     <g id="text_16">
      <!-- 0.10 -->
      <g transform="translate(189.74534 63.692181) scale(0.08 -0.08)">
       <use xlink:href="#Roboto-Regular-30"/>
       <use xlink:href="#Roboto-Regular-2e" x="56.152344"/>
       <use xlink:href="#Roboto-Regular-31" x="82.470703"/>
       <use xlink:href="#Roboto-Regular-30" x="138.623047"/>
      </g>
     </g>
    </g>
    <g id="ytick_8">
     <g id="line2d_14">
      <g>
       <use xlink:href="#mdd0be731d3" x="212.32784" y="38.730911" style="stroke: #000000; stroke-width: 0.8"/>
      </g>
     </g>
     <g id="text_17">
      <!-- 0.20 -->
      <g transform="translate(189.74534 41.730911) scale(0.08 -0.08)">
       <use xlink:href="#Roboto-Regular-30"/>
       <use xlink:href="#Roboto-Regular-2e" x="56.152344"/>
       <use xlink:href="#Roboto-Regular-32" x="82.470703"/>
       <use xlink:href="#Roboto-Regular-30" x="138.623047"/>
      </g>
     </g>
    </g>
    <g id="text_18">
     <!-- $\Delta$ Pairwise Similarity -->
     <g transform="translate(172.16184 100.329983) rotate(-90) scale(0.08 -0.08)">
      <defs>
       <path id="Roboto-Regular-50" d="M 1128 1781 
L 1128 0 
L 528 0 
L 528 4550 
L 2206 4550 
Q 2953 4550 3376 4169 
Q 3800 3788 3800 3159 
Q 3800 2497 3386 2139 
Q 2972 1781 2200 1781 
L 1128 1781 
z
M 1128 2272 
L 2206 2272 
Q 2688 2272 2944 2498 
Q 3200 2725 3200 3153 
Q 3200 3559 2944 3803 
Q 2688 4047 2241 4056 
L 1128 4056 
L 1128 2272 
z
" transform="scale(0.015625)"/>
       <path id="Roboto-Regular-77" d="M 3431 797 
L 4081 3381 
L 4659 3381 
L 3675 0 
L 3206 0 
L 2384 2563 
L 1584 0 
L 1116 0 
L 134 3381 
L 709 3381 
L 1375 850 
L 2163 3381 
L 2628 3381 
L 3431 797 
z
" transform="scale(0.015625)"/>
       <path id="Roboto-Regular-79" d="M 1544 847 
L 2331 3381 
L 2950 3381 
L 1591 -522 
Q 1275 -1366 588 -1366 
L 478 -1356 
L 263 -1316 
L 263 -847 
L 419 -859 
Q 713 -859 877 -740 
Q 1041 -622 1147 -306 
L 1275 38 
L 69 3381 
L 700 3381 
L 1544 847 
z
" transform="scale(0.015625)"/>
      </defs>
      <use xlink:href="#DejaVuSans-394"/>
      <use xlink:href="#Roboto-Regular-20" transform="translate(68.408203 0)"/>
      <use xlink:href="#Roboto-Regular-50" transform="translate(93.164062 0)"/>
      <use xlink:href="#Roboto-Regular-61" transform="translate(156.25 0)"/>
      <use xlink:href="#Roboto-Regular-69" transform="translate(210.644531 0)"/>
      <use xlink:href="#Roboto-Regular-72" transform="translate(234.912109 0)"/>
      <use xlink:href="#Roboto-Regular-77" transform="translate(268.75 0)"/>
      <use xlink:href="#Roboto-Regular-69" transform="translate(343.896484 0)"/>
      <use xlink:href="#Roboto-Regular-73" transform="translate(368.164062 0)"/>
      <use xlink:href="#Roboto-Regular-65" transform="translate(419.726562 0)"/>
      <use xlink:href="#Roboto-Regular-20" transform="translate(472.705078 0)"/>
      <use xlink:href="#Roboto-Regular-53" transform="translate(497.460938 0)"/>
      <use xlink:href="#Roboto-Regular-69" transform="translate(556.787109 0)"/>
      <use xlink:href="#Roboto-Regular-6d" transform="translate(581.054688 0)"/>
      <use xlink:href="#Roboto-Regular-69" transform="translate(668.701172 0)"/>
      <use xlink:href="#Roboto-Regular-6c" transform="translate(692.96875 0)"/>
      <use xlink:href="#Roboto-Regular-61" transform="translate(717.236328 0)"/>
      <use xlink:href="#Roboto-Regular-72" transform="translate(771.630859 0)"/>
      <use xlink:href="#Roboto-Regular-69" transform="translate(805.46875 0)"/>
      <use xlink:href="#Roboto-Regular-74" transform="translate(829.736328 0)"/>
      <use xlink:href="#Roboto-Regular-79" transform="translate(862.402344 0)"/>
     </g>
     <!-- Correlation ($\rho$) -->
     <g transform="translate(181.69784 89.849983) rotate(-90) scale(0.08 -0.08)">
      <defs>
       <path id="Roboto-Regular-43" d="M 3875 1444 
Q 3791 722 3342 329 
Q 2894 -63 2150 -63 
Q 1344 -63 858 515 
Q 372 1094 372 2063 
L 372 2500 
Q 372 3134 598 3615 
Q 825 4097 1240 4355 
Q 1656 4613 2203 4613 
Q 2928 4613 3365 4208 
Q 3803 3803 3875 3088 
L 3272 3088 
Q 3194 3631 2933 3875 
Q 2672 4119 2203 4119 
Q 1628 4119 1301 3694 
Q 975 3269 975 2484 
L 975 2044 
Q 975 1303 1284 865 
Q 1594 428 2150 428 
Q 2650 428 2917 654 
Q 3184 881 3272 1444 
L 3875 1444 
z
" transform="scale(0.015625)"/>
       <path id="Roboto-Regular-28" d="M 416 1847 
Q 416 2553 605 3203 
Q 794 3853 1169 4384 
Q 1544 4916 1947 5134 
L 2066 4753 
Q 1609 4403 1317 3684 
Q 1025 2966 997 2075 
L 994 1809 
Q 994 603 1434 -284 
Q 1700 -816 2066 -1116 
L 1947 -1469 
Q 1531 -1238 1153 -694 
Q 416 369 416 1847 
z
" transform="scale(0.015625)"/>
       <path id="DejaVuSans-Oblique-3c1" d="M 1203 2875 
Q 1453 3194 1981 3475 
Q 2188 3584 2756 3584 
Q 3394 3584 3694 3078 
Q 3994 2572 3834 1747 
Q 3672 922 3175 415 
Q 2678 -91 2041 -91 
Q 1656 -91 1409 63 
Q 1163 213 1044 525 
L 681 -1331 
L 103 -1331 
L 697 1716 
Q 838 2438 1203 2875 
z
M 3238 1747 
Q 3359 2381 3169 2744 
Q 2978 3103 2522 3103 
Q 2066 3103 1734 2744 
Q 1403 2381 1281 1747 
Q 1156 1113 1347 750 
Q 1538 391 1994 391 
Q 2450 391 2781 750 
Q 3113 1113 3238 1747 
z
" transform="scale(0.015625)"/>
       <path id="Roboto-Regular-29" d="M 1772 1816 
Q 1772 1119 1589 480 
Q 1406 -159 1029 -700 
Q 653 -1241 241 -1469 
L 119 -1116 
Q 600 -747 892 29 
Q 1184 806 1191 1753 
L 1191 1853 
Q 1191 2509 1053 3073 
Q 916 3638 670 4084 
Q 425 4531 119 4781 
L 241 5134 
Q 653 4906 1026 4372 
Q 1400 3838 1586 3194 
Q 1772 2550 1772 1816 
z
" transform="scale(0.015625)"/>
      </defs>
      <use xlink:href="#Roboto-Regular-43" transform="translate(0 0.78125)"/>
      <use xlink:href="#Roboto-Regular-6f" transform="translate(65.087891 0.78125)"/>
      <use xlink:href="#Roboto-Regular-72" transform="translate(122.119141 0.78125)"/>
      <use xlink:href="#Roboto-Regular-72" transform="translate(155.957031 0.78125)"/>
      <use xlink:href="#Roboto-Regular-65" transform="translate(189.794922 0.78125)"/>
      <use xlink:href="#Roboto-Regular-6c" transform="translate(242.773438 0.78125)"/>
      <use xlink:href="#Roboto-Regular-61" transform="translate(267.041016 0.78125)"/>
      <use xlink:href="#Roboto-Regular-74" transform="translate(321.435547 0.78125)"/>
      <use xlink:href="#Roboto-Regular-69" transform="translate(354.101562 0.78125)"/>
      <use xlink:href="#Roboto-Regular-6f" transform="translate(378.369141 0.78125)"/>
      <use xlink:href="#Roboto-Regular-6e" transform="translate(435.400391 0.78125)"/>
      <use xlink:href="#Roboto-Regular-20" transform="translate(490.576172 0.78125)"/>
      <use xlink:href="#Roboto-Regular-28" transform="translate(515.332031 0.78125)"/>
      <use xlink:href="#DejaVuSans-Oblique-3c1" transform="translate(549.511719 0.78125)"/>
      <use xlink:href="#Roboto-Regular-29" transform="translate(612.988281 0.78125)"/>
     </g>
    </g>
   </g>
   <g id="patch_12">
    <path d="M 212.32784 108.242466 
L 212.32784 19.6175 
" style="fill: none; stroke: #000000; stroke-width: 0.8; stroke-linejoin: miter; stroke-linecap: square"/>
   </g>
   <g id="patch_13">
    <path d="M 212.32784 108.242466 
L 324.32368 108.242466 
" style="fill: none; stroke: #000000; stroke-width: 0.8; stroke-linejoin: miter; stroke-linecap: square"/>
   </g>
   <g id="PathCollection_4">
    <g clip-path="url(#pb4297fa0e2)">
     <use xlink:href="#m9ea3325e9c" x="233.566569" y="81.536129" style="fill: #666666; fill-opacity: 0.8"/>
     <use xlink:href="#m9ea3325e9c" x="231.907718" y="91.330143" style="fill: #666666; fill-opacity: 0.8"/>
     <use xlink:href="#m9ea3325e9c" x="233.652314" y="87.68313" style="fill: #666666; fill-opacity: 0.8"/>
     <use xlink:href="#m9ea3325e9c" x="232.709748" y="94.974917" style="fill: #666666; fill-opacity: 0.8"/>
     <use xlink:href="#m9ea3325e9c" x="231.993019" y="98.091659" style="fill: #666666; fill-opacity: 0.8"/>
     <use xlink:href="#m9ea3325e9c" x="233.230106" y="64.672191" style="fill: #666666; fill-opacity: 0.8"/>
     <use xlink:href="#m9ea3325e9c" x="234.341641" y="23.645908" style="fill: #666666; fill-opacity: 0.8"/>
    </g>
   </g>
   <g id="PathCollection_5">
    <g clip-path="url(#pb4297fa0e2)">
     <use xlink:href="#m9ea3325e9c" x="267.586704" y="88.523496" style="fill: #666666; fill-opacity: 0.8"/>
     <use xlink:href="#m9ea3325e9c" x="270.127235" y="76.491771" style="fill: #666666; fill-opacity: 0.8"/>
     <use xlink:href="#m9ea3325e9c" x="268.912342" y="78.939884" style="fill: #666666; fill-opacity: 0.8"/>
    </g>
   </g>
   <g id="PathCollection_6">
    <g clip-path="url(#pb4297fa0e2)">
     <use xlink:href="#m9ea3325e9c" x="301.933601" y="75.790125" style="fill: #666666; fill-opacity: 0.8"/>
     <use xlink:href="#m9ea3325e9c" x="302.804541" y="60.427426" style="fill: #666666; fill-opacity: 0.8"/>
     <use xlink:href="#m9ea3325e9c" x="304.571857" y="90.359103" style="fill: #666666; fill-opacity: 0.8"/>
     <use xlink:href="#m9ea3325e9c" x="303.031742" y="93.055507" style="fill: #666666; fill-opacity: 0.8"/>
     <use xlink:href="#m9ea3325e9c" x="307.752315" y="83.00458" style="fill: #666666; fill-opacity: 0.8"/>
     <use xlink:href="#m9ea3325e9c" x="308.967756" y="104.214058" style="fill: #666666; fill-opacity: 0.8"/>
     <use xlink:href="#m9ea3325e9c" x="308.170259" y="94.795141" style="fill: #666666; fill-opacity: 0.8"/>
    </g>
   </g>
   <g id="text_19">
    <!-- B -->
    <g transform="translate(206.728048 15.186252) scale(0.08 -0.08)">
     <defs>
      <path id="Roboto-Bold-42" d="M 406 0 
L 406 4550 
L 2000 4550 
Q 2828 4550 3256 4233 
Q 3684 3916 3684 3303 
Q 3684 2969 3512 2714 
Q 3341 2459 3034 2341 
Q 3384 2253 3586 1987 
Q 3788 1722 3788 1338 
Q 3788 681 3369 343 
Q 2950 6 2175 0 
L 406 0 
z
M 1344 1981 
L 1344 753 
L 2147 753 
Q 2478 753 2664 911 
Q 2850 1069 2850 1347 
Q 2850 1972 2203 1981 
L 1344 1981 
z
M 1344 2644 
L 2038 2644 
Q 2747 2656 2747 3209 
Q 2747 3519 2567 3655 
Q 2388 3791 2000 3791 
L 1344 3791 
L 1344 2644 
z
" transform="scale(0.015625)"/>
     </defs>
     <use xlink:href="#Roboto-Bold-42"/>
    </g>
   </g>
   <g id="text_20">
    <!-- Peterson et al. (2018) -->
    <g transform="translate(230.013885 13.6175) scale(0.08 -0.08)">
     <defs>
      <path id="Roboto-Regular-38" d="M 3138 3363 
Q 3138 3022 2958 2756 
Q 2778 2491 2472 2341 
Q 2828 2188 3036 1894 
Q 3244 1600 3244 1228 
Q 3244 638 2845 287 
Q 2447 -63 1797 -63 
Q 1141 -63 745 289 
Q 350 641 350 1228 
Q 350 1597 551 1894 
Q 753 2191 1109 2344 
Q 806 2494 631 2759 
Q 456 3025 456 3363 
Q 456 3938 825 4275 
Q 1194 4613 1797 4613 
Q 2397 4613 2767 4275 
Q 3138 3938 3138 3363 
z
M 2666 1241 
Q 2666 1622 2423 1862 
Q 2181 2103 1790 2103 
Q 1400 2103 1164 1865 
Q 928 1628 928 1240 
Q 928 853 1158 631 
Q 1388 409 1797 409 
Q 2203 409 2434 632 
Q 2666 856 2666 1241 
z
M 1797 4138 
Q 1456 4138 1245 3927 
Q 1034 3716 1034 3353 
Q 1034 3006 1242 2792 
Q 1450 2578 1797 2578 
Q 2144 2578 2351 2792 
Q 2559 3006 2559 3353 
Q 2559 3700 2343 3919 
Q 2128 4138 1797 4138 
z
" transform="scale(0.015625)"/>
     </defs>
     <use xlink:href="#Roboto-Regular-50"/>
     <use xlink:href="#Roboto-Regular-65" x="63.085938"/>
     <use xlink:href="#Roboto-Regular-74" x="116.064453"/>
     <use xlink:href="#Roboto-Regular-65" x="148.730469"/>
     <use xlink:href="#Roboto-Regular-72" x="201.708984"/>
     <use xlink:href="#Roboto-Regular-73" x="235.546875"/>
     <use xlink:href="#Roboto-Regular-6f" x="287.109375"/>
     <use xlink:href="#Roboto-Regular-6e" x="344.140625"/>
     <use xlink:href="#Roboto-Regular-20" x="399.316406"/>
     <use xlink:href="#Roboto-Regular-65" x="424.072266"/>
     <use xlink:href="#Roboto-Regular-74" x="477.050781"/>
     <use xlink:href="#Roboto-Regular-20" x="509.716797"/>
     <use xlink:href="#Roboto-Regular-61" x="534.472656"/>
     <use xlink:href="#Roboto-Regular-6c" x="588.867188"/>
     <use xlink:href="#Roboto-Regular-2e" x="613.134766"/>
     <use xlink:href="#Roboto-Regular-20" x="639.453125"/>
     <use xlink:href="#Roboto-Regular-28" x="664.208984"/>
     <use xlink:href="#Roboto-Regular-32" x="698.388672"/>
     <use xlink:href="#Roboto-Regular-30" x="754.541016"/>
     <use xlink:href="#Roboto-Regular-31" x="810.693359"/>
     <use xlink:href="#Roboto-Regular-38" x="866.845703"/>
     <use xlink:href="#Roboto-Regular-29" x="922.998047"/>
    </g>
   </g>
  </g>
  <g id="axes_3">
   <g id="patch_14">
    <path d="M 381.04068 108.242466 
L 493.03652 108.242466 
L 493.03652 19.6175 
L 381.04068 19.6175 
z
" style="fill: #ffffff"/>
   </g>
   <g id="patch_15">
    <path d="M 384.773875 82.086186 
L 414.639432 82.086186 
L 414.639432 73.251248 
L 384.773875 73.251248 
z
" clip-path="url(#p16b06ad6d8)" style="fill: #f0cca7; stroke: #666666; stroke-linejoin: miter"/>
   </g>
   <g id="patch_16">
    <path d="M 422.105821 82.086186 
L 451.971379 82.086186 
L 451.971379 65.064746 
L 422.105821 65.064746 
z
" clip-path="url(#p16b06ad6d8)" style="fill: #f0cca7; stroke: #666666; stroke-linejoin: miter"/>
   </g>
   <g id="patch_17">
    <path d="M 459.437768 82.086186 
L 489.303325 82.086186 
L 489.303325 82.329349 
L 459.437768 82.329349 
z
" clip-path="url(#p16b06ad6d8)" style="fill: #f0cca7; stroke: #666666; stroke-linejoin: miter"/>
   </g>
   <g id="matplotlib.axis_5">
    <g id="xtick_7">
     <g id="line2d_15">
      <g>
       <use xlink:href="#m148b382a33" x="399.706653" y="108.242466" style="stroke: #000000; stroke-width: 0.8"/>
      </g>
     </g>
     <g id="text_21">
      <!-- Harmonization -->
      <g transform="translate(382.678196 156.635613) rotate(-45) scale(0.08 -0.08)">
       <use xlink:href="#Roboto-Regular-48"/>
       <use xlink:href="#Roboto-Regular-61" x="71.289062"/>
       <use xlink:href="#Roboto-Regular-72" x="125.683594"/>
       <use xlink:href="#Roboto-Regular-6d" x="159.521484"/>
       <use xlink:href="#Roboto-Regular-6f" x="247.167969"/>
       <use xlink:href="#Roboto-Regular-6e" x="304.199219"/>
       <use xlink:href="#Roboto-Regular-69" x="359.375"/>
       <use xlink:href="#Roboto-Regular-7a" x="383.642578"/>
       <use xlink:href="#Roboto-Regular-61" x="433.203125"/>
       <use xlink:href="#Roboto-Regular-74" x="487.597656"/>
       <use xlink:href="#Roboto-Regular-69" x="520.263672"/>
       <use xlink:href="#Roboto-Regular-6f" x="544.53125"/>
       <use xlink:href="#Roboto-Regular-6e" x="601.5625"/>
      </g>
     </g>
    </g>
    <g id="xtick_8">
     <g id="line2d_16">
      <g>
       <use xlink:href="#m148b382a33" x="437.0386" y="108.242466" style="stroke: #000000; stroke-width: 0.8"/>
      </g>
     </g>
     <g id="text_22">
      <!-- DreamSim -->
      <g transform="translate(425.414206 145.827486) rotate(-45) scale(0.08 -0.08)">
       <use xlink:href="#Roboto-Regular-44"/>
       <use xlink:href="#Roboto-Regular-72" x="65.576172"/>
       <use xlink:href="#Roboto-Regular-65" x="99.414062"/>
       <use xlink:href="#Roboto-Regular-61" x="152.392578"/>
       <use xlink:href="#Roboto-Regular-6d" x="206.787109"/>
       <use xlink:href="#Roboto-Regular-53" x="294.433594"/>
       <use xlink:href="#Roboto-Regular-69" x="353.759766"/>
       <use xlink:href="#Roboto-Regular-6d" x="378.027344"/>
      </g>
     </g>
    </g>
    <g id="xtick_9">
     <g id="line2d_17">
      <g>
       <use xlink:href="#m148b382a33" x="474.370547" y="108.242466" style="stroke: #000000; stroke-width: 0.8"/>
      </g>
     </g>
     <g id="text_23">
      <!-- gLocal -->
      <g transform="translate(467.476256 136.33988) rotate(-45) scale(0.08 -0.08)">
       <use xlink:href="#Roboto-Regular-67"/>
       <use xlink:href="#Roboto-Regular-4c" x="56.103516"/>
       <use xlink:href="#Roboto-Regular-6f" x="109.912109"/>
       <use xlink:href="#Roboto-Regular-63" x="166.943359"/>
       <use xlink:href="#Roboto-Regular-61" x="219.287109"/>
       <use xlink:href="#Roboto-Regular-6c" x="273.681641"/>
      </g>
     </g>
    </g>
   </g>
   <g id="matplotlib.axis_6">
    <g id="ytick_9">
     <g id="line2d_18">
      <g>
       <use xlink:href="#mdd0be731d3" x="381.04068" y="104.299165" style="stroke: #000000; stroke-width: 0.8"/>
      </g>
     </g>
     <g id="text_24">
      <!-- -10 -->
      <g transform="translate(362.84818 107.299165) scale(0.08 -0.08)">
       <use xlink:href="#Roboto-Regular-2d"/>
       <use xlink:href="#Roboto-Regular-31" x="27.587891"/>
       <use xlink:href="#Roboto-Regular-30" x="83.740234"/>
      </g>
     </g>
    </g>
    <g id="ytick_10">
     <g id="line2d_19">
      <g>
       <use xlink:href="#mdd0be731d3" x="381.04068" y="82.086186" style="stroke: #000000; stroke-width: 0.8"/>
      </g>
     </g>
     <g id="text_25">
      <!-- 0 -->
      <g transform="translate(369.54818 85.086186) scale(0.08 -0.08)">
       <use xlink:href="#Roboto-Regular-30"/>
      </g>
     </g>
    </g>
    <g id="ytick_11">
     <g id="line2d_20">
      <g>
       <use xlink:href="#mdd0be731d3" x="381.04068" y="59.873206" style="stroke: #000000; stroke-width: 0.8"/>
      </g>
     </g>
     <g id="text_26">
      <!-- 10 -->
      <g transform="translate(365.05568 62.873206) scale(0.08 -0.08)">
       <use xlink:href="#Roboto-Regular-31"/>
       <use xlink:href="#Roboto-Regular-30" x="56.152344"/>
      </g>
     </g>
    </g>
    <g id="ytick_12">
     <g id="line2d_21">
      <g>
       <use xlink:href="#mdd0be731d3" x="381.04068" y="37.660227" style="stroke: #000000; stroke-width: 0.8"/>
      </g>
     </g>
     <g id="text_27">
      <!-- 20 -->
      <g transform="translate(365.05568 40.660227) scale(0.08 -0.08)">
       <use xlink:href="#Roboto-Regular-32"/>
       <use xlink:href="#Roboto-Regular-30" x="56.152344"/>
      </g>
     </g>
    </g>
    <g id="text_28">
     <!-- $\Delta$ 2 AFC % Accuracy -->
     <g transform="translate(357.08818 99.769983) rotate(-90) scale(0.08 -0.08)">
      <defs>
       <path id="Roboto-Regular-41" d="M 3041 1188 
L 1134 1188 
L 706 0 
L 88 0 
L 1825 4550 
L 2350 4550 
L 4091 0 
L 3475 0 
L 3041 1188 
z
M 1316 1681 
L 2863 1681 
L 2088 3809 
L 1316 1681 
z
" transform="scale(0.015625)"/>
       <path id="Roboto-Regular-25" d="M 328 3675 
Q 328 4084 589 4350 
Q 850 4616 1259 4616 
Q 1675 4616 1933 4348 
Q 2191 4081 2191 3656 
L 2191 3434 
Q 2191 3022 1930 2761 
Q 1669 2500 1266 2500 
Q 859 2500 593 2761 
Q 328 3022 328 3456 
L 328 3675 
z
M 759 3434 
Q 759 3191 896 3033 
Q 1034 2875 1266 2875 
Q 1488 2875 1623 3028 
Q 1759 3181 1759 3447 
L 1759 3675 
Q 1759 3919 1625 4078 
Q 1491 4238 1259 4238 
Q 1028 4238 893 4078 
Q 759 3919 759 3663 
L 759 3434 
z
M 2544 1116 
Q 2544 1525 2805 1789 
Q 3066 2053 3475 2053 
Q 3884 2053 4146 1790 
Q 4409 1528 4409 1094 
L 4409 872 
Q 4409 463 4148 198 
Q 3888 -66 3481 -66 
Q 3075 -66 2809 195 
Q 2544 456 2544 891 
L 2544 1116 
z
M 2975 872 
Q 2975 625 3112 467 
Q 3250 309 3481 309 
Q 3706 309 3840 464 
Q 3975 619 3975 884 
L 3975 1116 
Q 3975 1363 3839 1519 
Q 3703 1675 3475 1675 
Q 3253 1675 3114 1520 
Q 2975 1366 2975 1103 
L 2975 872 
z
M 1397 344 
L 1069 550 
L 3291 4106 
L 3619 3900 
L 1397 344 
z
" transform="scale(0.015625)"/>
      </defs>
      <use xlink:href="#DejaVuSans-394" transform="translate(0 0.09375)"/>
      <use xlink:href="#Roboto-Regular-20" transform="translate(68.408203 0.09375)"/>
      <use xlink:href="#Roboto-Regular-32" transform="translate(93.164062 0.09375)"/>
      <use xlink:href="#Roboto-Regular-20" transform="translate(149.316406 0.09375)"/>
      <use xlink:href="#Roboto-Regular-41" transform="translate(174.072266 0.09375)"/>
      <use xlink:href="#Roboto-Regular-46" transform="translate(239.306641 0.09375)"/>
      <use xlink:href="#Roboto-Regular-43" transform="translate(294.580078 0.09375)"/>
      <use xlink:href="#Roboto-Regular-20" transform="translate(359.667969 0.09375)"/>
      <use xlink:href="#Roboto-Regular-25" transform="translate(384.423828 0.09375)"/>
      <use xlink:href="#Roboto-Regular-20" transform="translate(457.666016 0.09375)"/>
      <use xlink:href="#Roboto-Regular-41" transform="translate(482.421875 0.09375)"/>
      <use xlink:href="#Roboto-Regular-63" transform="translate(547.65625 0.09375)"/>
      <use xlink:href="#Roboto-Regular-63" transform="translate(600 0.09375)"/>
      <use xlink:href="#Roboto-Regular-75" transform="translate(652.34375 0.09375)"/>
      <use xlink:href="#Roboto-Regular-72" transform="translate(707.470703 0.09375)"/>
      <use xlink:href="#Roboto-Regular-61" transform="translate(741.308594 0.09375)"/>
      <use xlink:href="#Roboto-Regular-63" transform="translate(795.703125 0.09375)"/>
      <use xlink:href="#Roboto-Regular-79" transform="translate(848.046875 0.09375)"/>
     </g>
    </g>
   </g>
   <g id="patch_18">
    <path d="M 381.04068 108.242466 
L 381.04068 19.6175 
" style="fill: none; stroke: #000000; stroke-width: 0.8; stroke-linejoin: miter; stroke-linecap: square"/>
   </g>
   <g id="patch_19">
    <path d="M 381.04068 108.242466 
L 493.03652 108.242466 
" style="fill: none; stroke: #000000; stroke-width: 0.8; stroke-linejoin: miter; stroke-linecap: square"/>
   </g>
   <g id="text_29">
    <!-- C -->
    <g transform="translate(375.440888 15.186252) scale(0.08 -0.08)">
     <defs>
      <path id="Roboto-Bold-43" d="M 3978 1516 
Q 3925 781 3436 359 
Q 2947 -63 2147 -63 
Q 1272 -63 770 526 
Q 269 1116 269 2144 
L 269 2422 
Q 269 3078 500 3578 
Q 731 4078 1161 4345 
Q 1591 4613 2159 4613 
Q 2947 4613 3428 4191 
Q 3909 3769 3984 3006 
L 3047 3006 
Q 3013 3447 2802 3645 
Q 2591 3844 2159 3844 
Q 1691 3844 1458 3508 
Q 1225 3172 1219 2466 
L 1219 2122 
Q 1219 1384 1442 1043 
Q 1666 703 2147 703 
Q 2581 703 2795 901 
Q 3009 1100 3041 1516 
L 3978 1516 
z
" transform="scale(0.015625)"/>
     </defs>
     <use xlink:href="#Roboto-Bold-43"/>
    </g>
   </g>
   <g id="PathCollection_7">
    <g clip-path="url(#p16b06ad6d8)">
     <use xlink:href="#m9ea3325e9c" x="398.290943" y="74.710228" style="fill: #666666; fill-opacity: 0.8"/>
     <use xlink:href="#m9ea3325e9c" x="397.636401" y="80.667732" style="fill: #666666; fill-opacity: 0.8"/>
     <use xlink:href="#m9ea3325e9c" x="399.737271" y="104.214058" style="fill: #666666; fill-opacity: 0.8"/>
     <use xlink:href="#m9ea3325e9c" x="399.64802" y="72.157012" style="fill: #666666; fill-opacity: 0.8"/>
     <use xlink:href="#m9ea3325e9c" x="400.831269" y="85.206783" style="fill: #666666; fill-opacity: 0.8"/>
     <use xlink:href="#m9ea3325e9c" x="400.147204" y="72.157012" style="fill: #666666; fill-opacity: 0.8"/>
     <use xlink:href="#m9ea3325e9c" x="401.749211" y="23.645908" style="fill: #666666; fill-opacity: 0.8"/>
    </g>
   </g>
   <g id="PathCollection_8">
    <g clip-path="url(#p16b06ad6d8)">
     <use xlink:href="#m9ea3325e9c" x="436.722205" y="67.334271" style="fill: #666666; fill-opacity: 0.8"/>
     <use xlink:href="#m9ea3325e9c" x="435.504596" y="56.837716" style="fill: #666666; fill-opacity: 0.8"/>
     <use xlink:href="#m9ea3325e9c" x="435.226474" y="71.02225" style="fill: #666666; fill-opacity: 0.8"/>
    </g>
   </g>
   <g id="PathCollection_9">
    <g clip-path="url(#p16b06ad6d8)">
     <use xlink:href="#m9ea3325e9c" x="475.919491" y="79.81666" style="fill: #666666; fill-opacity: 0.8"/>
     <use xlink:href="#m9ea3325e9c" x="474.209783" y="77.830826" style="fill: #666666; fill-opacity: 0.8"/>
     <use xlink:href="#m9ea3325e9c" x="475.722055" y="81.518804" style="fill: #666666; fill-opacity: 0.8"/>
     <use xlink:href="#m9ea3325e9c" x="472.544899" y="81.518804" style="fill: #666666; fill-opacity: 0.8"/>
     <use xlink:href="#m9ea3325e9c" x="475.989384" y="81.802495" style="fill: #666666; fill-opacity: 0.8"/>
     <use xlink:href="#m9ea3325e9c" x="477.634979" y="89.745834" style="fill: #666666; fill-opacity: 0.8"/>
     <use xlink:href="#m9ea3325e9c" x="477.177566" y="84.07202" style="fill: #666666; fill-opacity: 0.8"/>
    </g>
   </g>
   <g id="text_30">
    <!-- Fu et al. (2023) -->
    <g transform="translate(410.284225 13.6175) scale(0.08 -0.08)">
     <use xlink:href="#Roboto-Regular-46"/>
     <use xlink:href="#Roboto-Regular-75" x="55.273438"/>
     <use xlink:href="#Roboto-Regular-20" x="110.400391"/>
     <use xlink:href="#Roboto-Regular-65" x="135.15625"/>
     <use xlink:href="#Roboto-Regular-74" x="188.134766"/>
     <use xlink:href="#Roboto-Regular-20" x="220.800781"/>
     <use xlink:href="#Roboto-Regular-61" x="245.556641"/>
     <use xlink:href="#Roboto-Regular-6c" x="299.951172"/>
     <use xlink:href="#Roboto-Regular-2e" x="324.21875"/>
     <use xlink:href="#Roboto-Regular-20" x="350.537109"/>
     <use xlink:href="#Roboto-Regular-28" x="375.292969"/>
     <use xlink:href="#Roboto-Regular-32" x="409.472656"/>
     <use xlink:href="#Roboto-Regular-30" x="465.625"/>
     <use xlink:href="#Roboto-Regular-32" x="521.777344"/>
     <use xlink:href="#Roboto-Regular-33" x="577.929688"/>
     <use xlink:href="#Roboto-Regular-29" x="634.082031"/>
    </g>
   </g>
  </g>
 </g>
 <defs>
  <clipPath id="pd56b02f599">
   <rect x="43.615" y="19.6175" width="111.99584" height="88.624966"/>
  </clipPath>
  <clipPath id="pb4297fa0e2">
   <rect x="212.32784" y="19.6175" width="111.99584" height="88.624966"/>
  </clipPath>
  <clipPath id="p16b06ad6d8">
   <rect x="381.04068" y="19.6175" width="111.99584" height="88.624966"/>
  </clipPath>
 </defs>
</svg>
