<?xml version="1.0" encoding="utf-8" standalone="no"?>
<!DOCTYPE svg PUBLIC "-//W3C//DTD SVG 1.1//EN"
  "http://www.w3.org/Graphics/SVG/1.1/DTD/svg11.dtd">
<svg xmlns:xlink="http://www.w3.org/1999/xlink" width="500.91227pt" height="138.699005pt" viewBox="0 0 500.91227 138.699005" xmlns="http://www.w3.org/2000/svg" version="1.1">
 <metadata>
  <rdf:RDF xmlns:dc="http://purl.org/dc/elements/1.1/" xmlns:cc="http://creativecommons.org/ns#" xmlns:rdf="http://www.w3.org/1999/02/22-rdf-syntax-ns#">
   <cc:Work>
    <dc:type rdf:resource="http://purl.org/dc/dcmitype/StillImage"/>
    <dc:date>2025-01-15T16:12:19.441766</dc:date>
    <dc:format>image/svg+xml</dc:format>
    <dc:creator>
     <cc:Agent>
      <dc:title>Matplotlib v3.9.4, https://matplotlib.org/</dc:title>
     </cc:Agent>
    </dc:creator>
   </cc:Work>
  </rdf:RDF>
 </metadata>
 <defs>
  <style type="text/css">*{stroke-linejoin: round; stroke-linecap: butt}</style>
 </defs>
 <g id="figure_1">
  <g id="patch_1">
   <path d="M 0 138.699005 
L 500.91227 138.699005 
L 500.91227 0 
L 0 0 
z
" style="fill: #ffffff"/>
  </g>
  <g id="axes_1">
   <g id="patch_2">
    <path d="M 37.54375 105.249005 
L 132.552996 105.249005 
L 132.552996 38.613268 
L 37.54375 38.613268 
z
" style="fill: #ffffff"/>
   </g>
   <g id="PolyCollection_1">
    <defs>
     <path id="m47e75212fd" d="M 41.862352 -74.613521 
L 41.862352 -62.043043 
L 42.588168 -64.135217 
L 43.313983 -62.740434 
L 44.039799 -55.06913 
L 44.765614 -57.143869 
L 45.491429 -62.043043 
L 46.217245 -66.209956 
L 46.94306 -64.117782 
L 47.668876 -63.437825 
L 48.394691 -61.345651 
L 49.120507 -66.924782 
L 49.846322 -69.714347 
L 50.572138 -65.529999 
L 51.297953 -64.135217 
L 52.023769 -76.68826 
L 52.749584 -69.714347 
L 53.4754 -71.806521 
L 54.201215 -63.437825 
L 54.927031 -72.503912 
L 55.652846 -70.411738 
L 56.378662 -75.293477 
L 57.104477 -73.201303 
L 57.830293 -64.135217 
L 58.556108 -73.898695 
L 59.281924 -68.319564 
L 60.007739 -71.806521 
L 60.733554 -71.806521 
L 61.45937 -72.503912 
L 62.185185 -72.503912 
L 62.911001 -73.201303 
L 63.636816 -73.201303 
L 64.362632 -75.293477 
L 65.088447 -72.503912 
L 65.814263 -73.898695 
L 66.540078 -75.293477 
L 67.265894 -70.411738 
L 67.991709 -71.806521 
L 68.717525 -70.411738 
L 69.44334 -74.596086 
L 70.169156 -74.596086 
L 70.894971 -71.806521 
L 71.620787 -73.201303 
L 72.346602 -71.109129 
L 73.072418 -81.569999 
L 73.798233 -71.109129 
L 74.524049 -70.394303 
L 75.249864 -75.990868 
L 75.975679 -74.596086 
L 76.701495 -74.596086 
L 77.42731 -76.68826 
L 78.153126 -66.22739 
L 78.878941 -77.385651 
L 79.604757 -76.670825 
L 80.330572 -78.780433 
L 81.056388 -78.083042 
L 81.782203 -75.276042 
L 82.508019 -73.201303 
L 83.233834 -77.385651 
L 83.95965 -79.477825 
L 84.685465 -78.083042 
L 85.411281 -71.806521 
L 86.137096 -78.083042 
L 86.862912 -71.806521 
L 87.588727 -73.898695 
L 88.314543 -74.596086 
L 89.040358 -75.990868 
L 89.766174 -73.201303 
L 90.491989 -72.503912 
L 91.217804 -74.596086 
L 91.94362 -77.385651 
L 92.669435 -75.293477 
L 93.395251 -73.201303 
L 94.121066 -75.293477 
L 94.846882 -82.26739 
L 95.572697 -78.780433 
L 96.298513 -81.569999 
L 97.024328 -78.083042 
L 97.750144 -77.385651 
L 98.475959 -71.806521 
L 99.201775 -79.477825 
L 99.92759 -78.780433 
L 100.653406 -81.569999 
L 101.379221 -73.201303 
L 102.105037 -73.201303 
L 102.830852 -76.68826 
L 103.556668 -73.898695 
L 104.282483 -79.477825 
L 105.008299 -79.477825 
L 105.734114 -76.68826 
L 106.459929 -80.855173 
L 107.185745 -79.477825 
L 107.91156 -78.780433 
L 108.637376 -80.872607 
L 109.363191 -79.477825 
L 110.089007 -79.477825 
L 110.814822 -73.898695 
L 111.540638 -73.201303 
L 112.266453 -71.109129 
L 112.992269 -79.477825 
L 113.718084 -78.780433 
L 114.4439 -82.26739 
L 115.169715 -80.872607 
L 115.895531 -76.68826 
L 116.621346 -80.175216 
L 117.347162 -81.569999 
L 118.072977 -78.083042 
L 118.798793 -80.872607 
L 119.524608 -73.898695 
L 120.250424 -75.990868 
L 120.976239 -71.109129 
L 121.702054 -73.898695 
L 122.42787 -80.872607 
L 123.153685 -80.157781 
L 123.879501 -81.569999 
L 124.605316 -78.780433 
L 125.331132 -78.083042 
L 126.056947 -75.990868 
L 126.782763 -80.872607 
L 127.508578 -80.872607 
L 128.234394 -77.385651 
L 128.234394 -87.84652 
L 128.234394 -87.84652 
L 127.508578 -89.956129 
L 126.782763 -89.938694 
L 126.056947 -86.451738 
L 125.331132 -88.543911 
L 124.605316 -89.241303 
L 123.879501 -91.333477 
L 123.153685 -89.938694 
L 122.42787 -90.636085 
L 121.702054 -85.754346 
L 120.976239 -84.359564 
L 120.250424 -87.149129 
L 119.524608 -85.056955 
L 118.798793 -90.636085 
L 118.072977 -88.543911 
L 117.347162 -91.333477 
L 116.621346 -90.636085 
L 115.895531 -87.166564 
L 115.169715 -90.636085 
L 114.4439 -91.333477 
L 113.718084 -89.241303 
L 112.992269 -89.938694 
L 112.266453 -83.662172 
L 111.540638 -85.754346 
L 110.814822 -85.056955 
L 110.089007 -89.938694 
L 109.363191 -89.938694 
L 108.637376 -90.636085 
L 107.91156 -89.241303 
L 107.185745 -89.938694 
L 106.459929 -90.636085 
L 105.734114 -87.149129 
L 105.008299 -89.938694 
L 104.282483 -89.938694 
L 103.556668 -85.056955 
L 102.830852 -87.166564 
L 102.105037 -84.359564 
L 101.379221 -85.056955 
L 100.653406 -91.333477 
L 99.92759 -89.241303 
L 99.201775 -89.241303 
L 98.475959 -83.662172 
L 97.750144 -87.84652 
L 97.024328 -88.561346 
L 96.298513 -91.333477 
L 95.572697 -89.241303 
L 94.846882 -92.030868 
L 94.121066 -86.451738 
L 93.395251 -84.359564 
L 92.669435 -86.451738 
L 91.94362 -87.84652 
L 91.217804 -85.754346 
L 90.491989 -84.359564 
L 89.766174 -85.056955 
L 89.040358 -87.149129 
L 88.314543 -85.771781 
L 87.588727 -85.056955 
L 86.862912 -83.662172 
L 86.137096 -88.543911 
L 85.411281 -83.662172 
L 84.685465 -88.543911 
L 83.95965 -89.241303 
L 83.233834 -87.84652 
L 82.508019 -85.056955 
L 81.782203 -86.451738 
L 81.056388 -88.543911 
L 80.330572 -89.241303 
L 79.604757 -87.84652 
L 78.878941 -88.543911 
L 78.153126 -78.780433 
L 77.42731 -87.84652 
L 76.701495 -85.754346 
L 75.975679 -85.754346 
L 75.249864 -87.149129 
L 74.524049 -81.569999 
L 73.798233 -83.662172 
L 73.072418 -91.333477 
L 72.346602 -83.662172 
L 71.620787 -85.754346 
L 70.894971 -83.662172 
L 70.169156 -85.754346 
L 69.44334 -85.754346 
L 68.717525 -83.662172 
L 67.991709 -83.679607 
L 67.265894 -82.284825 
L 66.540078 -85.754346 
L 65.814263 -85.056955 
L 65.088447 -83.662172 
L 64.362632 -86.451738 
L 63.636816 -85.056955 
L 62.911001 -84.376999 
L 62.185185 -84.359564 
L 61.45937 -85.754346 
L 60.733554 -83.662172 
L 60.007739 -84.359564 
L 59.281924 -80.175216 
L 58.556108 -85.056955 
L 57.830293 -76.68826 
L 57.104477 -85.056955 
L 56.378662 -86.451738 
L 55.652846 -82.964781 
L 54.927031 -84.359564 
L 54.201215 -76.68826 
L 53.4754 -83.662172 
L 52.749584 -81.569999 
L 52.023769 -87.149129 
L 51.297953 -77.385651 
L 50.572138 -77.403086 
L 49.846322 -81.569999 
L 49.120507 -79.477825 
L 48.394691 -74.596086 
L 47.668876 -77.385651 
L 46.94306 -76.008303 
L 46.217245 -78.780433 
L 45.491429 -74.596086 
L 44.765614 -69.714347 
L 44.039799 -67.622173 
L 43.313983 -75.990868 
L 42.588168 -76.68826 
L 41.862352 -74.613521 
z
" style="stroke: #fccc9b; stroke-opacity: 0.2"/>
    </defs>
    <g clip-path="url(#p89ef82d973)">
     <use xlink:href="#m47e75212fd" x="0" y="138.699005" style="fill: #fccc9b; fill-opacity: 0.2; stroke: #fccc9b; stroke-opacity: 0.2"/>
    </g>
   </g>
   <g id="matplotlib.axis_1">
    <g id="xtick_1">
     <g id="line2d_1">
      <defs>
       <path id="m79e2bdac06" d="M 0 0 
L 0 3.5 
" style="stroke: #000000; stroke-width: 0.8"/>
      </defs>
      <g>
       <use xlink:href="#m79e2bdac06" x="41.862352" y="105.249005" style="stroke: #000000; stroke-width: 0.8"/>
      </g>
     </g>
     <g id="text_1">
      <!-- 0 -->
      <g transform="translate(39.616102 118.249005) scale(0.08 -0.08)">
       <defs>
        <path id="Roboto-Regular-30" d="M 3231 1941 
Q 3231 925 2884 431 
Q 2538 -63 1800 -63 
Q 1072 -63 722 420 
Q 372 903 359 1863 
L 359 2634 
Q 359 3638 706 4125 
Q 1053 4613 1794 4613 
Q 2528 4613 2875 4142 
Q 3222 3672 3231 2691 
L 3231 1941 
z
M 2653 2731 
Q 2653 3466 2447 3802 
Q 2241 4138 1794 4138 
Q 1350 4138 1147 3803 
Q 944 3469 938 2775 
L 938 1850 
Q 938 1113 1152 761 
Q 1366 409 1800 409 
Q 2228 409 2436 740 
Q 2644 1072 2653 1784 
L 2653 2731 
z
" transform="scale(0.015625)"/>
       </defs>
       <use xlink:href="#Roboto-Regular-30"/>
      </g>
     </g>
    </g>
    <g id="xtick_2">
     <g id="line2d_2">
      <g>
       <use xlink:href="#m79e2bdac06" x="70.894971" y="105.249005" style="stroke: #000000; stroke-width: 0.8"/>
      </g>
     </g>
     <g id="text_2">
      <!-- 40 -->
      <g transform="translate(66.402471 118.249005) scale(0.08 -0.08)">
       <defs>
        <path id="Roboto-Regular-34" d="M 2819 1528 
L 3450 1528 
L 3450 1056 
L 2819 1056 
L 2819 0 
L 2238 0 
L 2238 1056 
L 166 1056 
L 166 1397 
L 2203 4550 
L 2819 4550 
L 2819 1528 
z
M 822 1528 
L 2238 1528 
L 2238 3759 
L 2169 3634 
L 822 1528 
z
" transform="scale(0.015625)"/>
       </defs>
       <use xlink:href="#Roboto-Regular-34"/>
       <use xlink:href="#Roboto-Regular-30" x="56.152344"/>
      </g>
     </g>
    </g>
    <g id="xtick_3">
     <g id="line2d_3">
      <g>
       <use xlink:href="#m79e2bdac06" x="99.92759" y="105.249005" style="stroke: #000000; stroke-width: 0.8"/>
      </g>
     </g>
     <g id="text_3">
      <!-- 80 -->
      <g transform="translate(95.43509 118.249005) scale(0.08 -0.08)">
       <defs>
        <path id="Roboto-Regular-38" d="M 3138 3363 
Q 3138 3022 2958 2756 
Q 2778 2491 2472 2341 
Q 2828 2188 3036 1894 
Q 3244 1600 3244 1228 
Q 3244 638 2845 287 
Q 2447 -63 1797 -63 
Q 1141 -63 745 289 
Q 350 641 350 1228 
Q 350 1597 551 1894 
Q 753 2191 1109 2344 
Q 806 2494 631 2759 
Q 456 3025 456 3363 
Q 456 3938 825 4275 
Q 1194 4613 1797 4613 
Q 2397 4613 2767 4275 
Q 3138 3938 3138 3363 
z
M 2666 1241 
Q 2666 1622 2423 1862 
Q 2181 2103 1790 2103 
Q 1400 2103 1164 1865 
Q 928 1628 928 1240 
Q 928 853 1158 631 
Q 1388 409 1797 409 
Q 2203 409 2434 632 
Q 2666 856 2666 1241 
z
M 1797 4138 
Q 1456 4138 1245 3927 
Q 1034 3716 1034 3353 
Q 1034 3006 1242 2792 
Q 1450 2578 1797 2578 
Q 2144 2578 2351 2792 
Q 2559 3006 2559 3353 
Q 2559 3700 2343 3919 
Q 2128 4138 1797 4138 
z
" transform="scale(0.015625)"/>
       </defs>
       <use xlink:href="#Roboto-Regular-38"/>
       <use xlink:href="#Roboto-Regular-30" x="56.152344"/>
      </g>
     </g>
    </g>
    <g id="xtick_4">
     <g id="line2d_4">
      <g>
       <use xlink:href="#m79e2bdac06" x="128.960209" y="105.249005" style="stroke: #000000; stroke-width: 0.8"/>
      </g>
     </g>
     <g id="text_4">
      <!-- 120 -->
      <g transform="translate(122.221459 118.249005) scale(0.08 -0.08)">
       <defs>
        <path id="Roboto-Regular-31" d="M 2278 0 
L 1697 0 
L 1697 3853 
L 531 3425 
L 531 3950 
L 2188 4572 
L 2278 4572 
L 2278 0 
z
" transform="scale(0.015625)"/>
        <path id="Roboto-Regular-32" d="M 3359 0 
L 378 0 
L 378 416 
L 1953 2166 
Q 2303 2563 2436 2811 
Q 2569 3059 2569 3325 
Q 2569 3681 2353 3909 
Q 2138 4138 1778 4138 
Q 1347 4138 1108 3892 
Q 869 3647 869 3209 
L 291 3209 
Q 291 3838 695 4225 
Q 1100 4613 1778 4613 
Q 2413 4613 2781 4280 
Q 3150 3947 3150 3394 
Q 3150 2722 2294 1794 
L 1075 472 
L 3359 472 
L 3359 0 
z
" transform="scale(0.015625)"/>
       </defs>
       <use xlink:href="#Roboto-Regular-31"/>
       <use xlink:href="#Roboto-Regular-32" x="56.152344"/>
       <use xlink:href="#Roboto-Regular-30" x="112.304688"/>
      </g>
     </g>
    </g>
    <g id="text_5">
     <!-- Trial -->
     <g transform="translate(77.190873 129.874005) scale(0.08 -0.08)">
      <defs>
       <path id="Roboto-Regular-54" d="M 3672 4056 
L 2209 4056 
L 2209 0 
L 1613 0 
L 1613 4056 
L 153 4056 
L 153 4550 
L 3672 4550 
L 3672 4056 
z
" transform="scale(0.015625)"/>
       <path id="Roboto-Regular-72" d="M 2072 2863 
Q 1941 2884 1788 2884 
Q 1219 2884 1016 2400 
L 1016 0 
L 438 0 
L 438 3381 
L 1000 3381 
L 1009 2991 
Q 1294 3444 1816 3444 
Q 1984 3444 2072 3400 
L 2072 2863 
z
" transform="scale(0.015625)"/>
       <path id="Roboto-Regular-69" d="M 1066 0 
L 488 0 
L 488 3381 
L 1066 3381 
L 1066 0 
z
M 441 4278 
Q 441 4419 527 4516 
Q 613 4613 781 4613 
Q 950 4613 1037 4516 
Q 1125 4419 1125 4278 
Q 1125 4138 1037 4044 
Q 950 3950 781 3950 
Q 613 3950 527 4044 
Q 441 4138 441 4278 
z
" transform="scale(0.015625)"/>
       <path id="Roboto-Regular-61" d="M 2525 0 
Q 2475 100 2444 356 
Q 2041 -63 1481 -63 
Q 981 -63 661 220 
Q 341 503 341 938 
Q 341 1466 742 1758 
Q 1144 2050 1872 2050 
L 2434 2050 
L 2434 2316 
Q 2434 2619 2253 2798 
Q 2072 2978 1719 2978 
Q 1409 2978 1200 2822 
Q 991 2666 991 2444 
L 409 2444 
Q 409 2697 589 2933 
Q 769 3169 1076 3306 
Q 1384 3444 1753 3444 
Q 2338 3444 2669 3151 
Q 3000 2859 3013 2347 
L 3013 791 
Q 3013 325 3131 50 
L 3131 0 
L 2525 0 
z
M 1566 441 
Q 1838 441 2081 581 
Q 2325 722 2434 947 
L 2434 1641 
L 1981 1641 
Q 919 1641 919 1019 
Q 919 747 1100 594 
Q 1281 441 1566 441 
z
" transform="scale(0.015625)"/>
       <path id="Roboto-Regular-6c" d="M 1066 0 
L 488 0 
L 488 4800 
L 1066 4800 
L 1066 0 
z
" transform="scale(0.015625)"/>
      </defs>
      <use xlink:href="#Roboto-Regular-54"/>
      <use xlink:href="#Roboto-Regular-72" x="59.667969"/>
      <use xlink:href="#Roboto-Regular-69" x="93.505859"/>
      <use xlink:href="#Roboto-Regular-61" x="117.773438"/>
      <use xlink:href="#Roboto-Regular-6c" x="172.167969"/>
     </g>
    </g>
   </g>
   <g id="matplotlib.axis_2">
    <g id="ytick_1">
     <g id="line2d_5">
      <defs>
       <path id="m42bec96011" d="M 0 0 
L -3.5 0 
" style="stroke: #000000; stroke-width: 0.8"/>
      </defs>
      <g>
       <use xlink:href="#m42bec96011" x="37.54375" y="105.249005" style="stroke: #000000; stroke-width: 0.8"/>
      </g>
     </g>
     <g id="text_6">
      <!-- 0.0 -->
      <g transform="translate(19.45375 108.249005) scale(0.08 -0.08)">
       <defs>
        <path id="Roboto-Regular-2e" d="M 450 303 
Q 450 453 539 553 
Q 628 653 806 653 
Q 984 653 1076 553 
Q 1169 453 1169 303 
Q 1169 159 1076 62 
Q 984 -34 806 -34 
Q 628 -34 539 62 
Q 450 159 450 303 
z
" transform="scale(0.015625)"/>
       </defs>
       <use xlink:href="#Roboto-Regular-30"/>
       <use xlink:href="#Roboto-Regular-2e" x="56.152344"/>
       <use xlink:href="#Roboto-Regular-30" x="82.470703"/>
      </g>
     </g>
    </g>
    <g id="ytick_2">
     <g id="line2d_6">
      <g>
       <use xlink:href="#m42bec96011" x="37.54375" y="73.517702" style="stroke: #000000; stroke-width: 0.8"/>
      </g>
     </g>
     <g id="text_7">
      <!-- 0.5 -->
      <g transform="translate(19.45375 76.517702) scale(0.08 -0.08)">
       <defs>
        <path id="Roboto-Regular-35" d="M 644 2281 
L 875 4550 
L 3206 4550 
L 3206 4016 
L 1366 4016 
L 1228 2775 
Q 1563 2972 1988 2972 
Q 2609 2972 2975 2561 
Q 3341 2150 3341 1450 
Q 3341 747 2961 342 
Q 2581 -63 1900 -63 
Q 1297 -63 915 271 
Q 534 606 481 1197 
L 1028 1197 
Q 1081 806 1306 607 
Q 1531 409 1900 409 
Q 2303 409 2533 684 
Q 2763 959 2763 1444 
Q 2763 1900 2514 2176 
Q 2266 2453 1853 2453 
Q 1475 2453 1259 2288 
L 1106 2163 
L 644 2281 
z
" transform="scale(0.015625)"/>
       </defs>
       <use xlink:href="#Roboto-Regular-30"/>
       <use xlink:href="#Roboto-Regular-2e" x="56.152344"/>
       <use xlink:href="#Roboto-Regular-35" x="82.470703"/>
      </g>
     </g>
    </g>
    <g id="ytick_3">
     <g id="line2d_7">
      <g>
       <use xlink:href="#m42bec96011" x="37.54375" y="41.786398" style="stroke: #000000; stroke-width: 0.8"/>
      </g>
     </g>
     <g id="text_8">
      <!-- 1.0 -->
      <g transform="translate(19.45375 44.786398) scale(0.08 -0.08)">
       <use xlink:href="#Roboto-Regular-31"/>
       <use xlink:href="#Roboto-Regular-2e" x="56.152344"/>
       <use xlink:href="#Roboto-Regular-30" x="82.470703"/>
      </g>
     </g>
    </g>
    <g id="text_9">
     <!-- p(Correct) -->
     <g transform="translate(13.6175 90.046136) rotate(-90) scale(0.08 -0.08)">
      <defs>
       <path id="Roboto-Regular-70" d="M 3294 1653 
Q 3294 881 2941 409 
Q 2588 -63 1984 -63 
Q 1369 -63 1016 328 
L 1016 -1300 
L 438 -1300 
L 438 3381 
L 966 3381 
L 994 3006 
Q 1347 3444 1975 3444 
Q 2584 3444 2939 2984 
Q 3294 2525 3294 1706 
L 3294 1653 
z
M 2716 1719 
Q 2716 2291 2472 2622 
Q 2228 2953 1803 2953 
Q 1278 2953 1016 2488 
L 1016 872 
Q 1275 409 1809 409 
Q 2225 409 2470 739 
Q 2716 1069 2716 1719 
z
" transform="scale(0.015625)"/>
       <path id="Roboto-Regular-28" d="M 416 1847 
Q 416 2553 605 3203 
Q 794 3853 1169 4384 
Q 1544 4916 1947 5134 
L 2066 4753 
Q 1609 4403 1317 3684 
Q 1025 2966 997 2075 
L 994 1809 
Q 994 603 1434 -284 
Q 1700 -816 2066 -1116 
L 1947 -1469 
Q 1531 -1238 1153 -694 
Q 416 369 416 1847 
z
" transform="scale(0.015625)"/>
       <path id="Roboto-Regular-43" d="M 3875 1444 
Q 3791 722 3342 329 
Q 2894 -63 2150 -63 
Q 1344 -63 858 515 
Q 372 1094 372 2063 
L 372 2500 
Q 372 3134 598 3615 
Q 825 4097 1240 4355 
Q 1656 4613 2203 4613 
Q 2928 4613 3365 4208 
Q 3803 3803 3875 3088 
L 3272 3088 
Q 3194 3631 2933 3875 
Q 2672 4119 2203 4119 
Q 1628 4119 1301 3694 
Q 975 3269 975 2484 
L 975 2044 
Q 975 1303 1284 865 
Q 1594 428 2150 428 
Q 2650 428 2917 654 
Q 3184 881 3272 1444 
L 3875 1444 
z
" transform="scale(0.015625)"/>
       <path id="Roboto-Regular-6f" d="M 284 1722 
Q 284 2219 479 2616 
Q 675 3013 1023 3228 
Q 1372 3444 1819 3444 
Q 2509 3444 2936 2966 
Q 3363 2488 3363 1694 
L 3363 1653 
Q 3363 1159 3173 767 
Q 2984 375 2632 156 
Q 2281 -63 1825 -63 
Q 1138 -63 711 415 
Q 284 894 284 1681 
L 284 1722 
z
M 866 1653 
Q 866 1091 1127 750 
Q 1388 409 1825 409 
Q 2266 409 2525 754 
Q 2784 1100 2784 1722 
Q 2784 2278 2520 2623 
Q 2256 2969 1819 2969 
Q 1391 2969 1128 2628 
Q 866 2288 866 1653 
z
" transform="scale(0.015625)"/>
       <path id="Roboto-Regular-65" d="M 1841 -63 
Q 1153 -63 722 389 
Q 291 841 291 1597 
L 291 1703 
Q 291 2206 483 2601 
Q 675 2997 1020 3220 
Q 1366 3444 1769 3444 
Q 2428 3444 2793 3009 
Q 3159 2575 3159 1766 
L 3159 1525 
L 869 1525 
Q 881 1025 1161 717 
Q 1441 409 1872 409 
Q 2178 409 2390 534 
Q 2603 659 2763 866 
L 3116 591 
Q 2691 -63 1841 -63 
z
M 1769 2969 
Q 1419 2969 1181 2714 
Q 944 2459 888 2000 
L 2581 2000 
L 2581 2044 
Q 2556 2484 2343 2726 
Q 2131 2969 1769 2969 
z
" transform="scale(0.015625)"/>
       <path id="Roboto-Regular-63" d="M 1794 409 
Q 2103 409 2334 596 
Q 2566 784 2591 1066 
L 3138 1066 
Q 3122 775 2937 512 
Q 2753 250 2445 93 
Q 2138 -63 1794 -63 
Q 1103 -63 695 398 
Q 288 859 288 1659 
L 288 1756 
Q 288 2250 469 2634 
Q 650 3019 989 3231 
Q 1328 3444 1791 3444 
Q 2359 3444 2736 3103 
Q 3113 2763 3138 2219 
L 2591 2219 
Q 2566 2547 2342 2758 
Q 2119 2969 1791 2969 
Q 1350 2969 1108 2651 
Q 866 2334 866 1734 
L 866 1625 
Q 866 1041 1106 725 
Q 1347 409 1794 409 
z
" transform="scale(0.015625)"/>
       <path id="Roboto-Regular-74" d="M 1222 4200 
L 1222 3381 
L 1853 3381 
L 1853 2934 
L 1222 2934 
L 1222 838 
Q 1222 634 1306 532 
Q 1391 431 1594 431 
Q 1694 431 1869 469 
L 1869 0 
Q 1641 -63 1425 -63 
Q 1038 -63 841 171 
Q 644 406 644 838 
L 644 2934 
L 28 2934 
L 28 3381 
L 644 3381 
L 644 4200 
L 1222 4200 
z
" transform="scale(0.015625)"/>
       <path id="Roboto-Regular-29" d="M 1772 1816 
Q 1772 1119 1589 480 
Q 1406 -159 1029 -700 
Q 653 -1241 241 -1469 
L 119 -1116 
Q 600 -747 892 29 
Q 1184 806 1191 1753 
L 1191 1853 
Q 1191 2509 1053 3073 
Q 916 3638 670 4084 
Q 425 4531 119 4781 
L 241 5134 
Q 653 4906 1026 4372 
Q 1400 3838 1586 3194 
Q 1772 2550 1772 1816 
z
" transform="scale(0.015625)"/>
      </defs>
      <use xlink:href="#Roboto-Regular-70"/>
      <use xlink:href="#Roboto-Regular-28" x="56.103516"/>
      <use xlink:href="#Roboto-Regular-43" x="90.283203"/>
      <use xlink:href="#Roboto-Regular-6f" x="155.371094"/>
      <use xlink:href="#Roboto-Regular-72" x="212.402344"/>
      <use xlink:href="#Roboto-Regular-72" x="246.240234"/>
      <use xlink:href="#Roboto-Regular-65" x="280.078125"/>
      <use xlink:href="#Roboto-Regular-63" x="333.056641"/>
      <use xlink:href="#Roboto-Regular-74" x="385.400391"/>
      <use xlink:href="#Roboto-Regular-29" x="418.066406"/>
     </g>
    </g>
   </g>
   <g id="line2d_8">
    <path d="M 41.862352 70.379441 
L 42.588168 68.287267 
L 43.313983 69.682049 
L 44.039799 77.353354 
L 44.765614 75.958571 
L 45.491429 70.379441 
L 46.217245 66.195093 
L 46.94306 68.287267 
L 47.668876 68.287267 
L 48.394691 70.379441 
L 49.120507 65.497702 
L 49.846322 62.708137 
L 50.572138 66.892484 
L 51.297953 67.589876 
L 52.023769 56.431615 
L 52.749584 62.708137 
L 53.4754 60.615963 
L 54.201215 68.287267 
L 54.927031 59.918572 
L 55.652846 62.010745 
L 56.378662 57.826398 
L 57.104477 59.22118 
L 57.830293 68.287267 
L 58.556108 59.22118 
L 59.281924 64.80031 
L 60.007739 60.615963 
L 60.733554 61.313354 
L 61.45937 59.22118 
L 62.185185 59.918572 
L 62.911001 59.22118 
L 63.636816 59.22118 
L 64.362632 57.826398 
L 65.088447 60.615963 
L 65.814263 59.22118 
L 66.540078 57.826398 
L 67.265894 62.010745 
L 67.991709 60.615963 
L 68.717525 61.313354 
L 69.44334 58.523789 
L 70.169156 58.523789 
L 70.894971 60.615963 
L 71.620787 59.22118 
L 72.346602 61.313354 
L 73.072418 52.247267 
L 73.798233 61.313354 
L 74.524049 62.708137 
L 75.249864 57.129006 
L 75.975679 58.523789 
L 76.701495 58.523789 
L 77.42731 56.431615 
L 78.153126 66.195093 
L 78.878941 55.734224 
L 79.604757 56.431615 
L 80.330572 54.339441 
L 81.056388 55.036833 
L 81.782203 57.826398 
L 82.508019 59.22118 
L 83.233834 55.734224 
L 83.95965 54.339441 
L 84.685465 55.036833 
L 85.411281 60.615963 
L 86.137096 55.036833 
L 86.862912 60.615963 
L 87.588727 59.22118 
L 88.314543 58.523789 
L 89.040358 57.129006 
L 89.766174 59.22118 
L 90.491989 59.918572 
L 91.217804 58.523789 
L 91.94362 55.734224 
L 92.669435 57.826398 
L 93.395251 59.918572 
L 94.121066 57.826398 
L 94.846882 51.549876 
L 95.572697 54.339441 
L 96.298513 52.247267 
L 97.024328 55.036833 
L 97.750144 55.734224 
L 98.475959 60.615963 
L 99.201775 54.339441 
L 99.92759 54.339441 
L 100.653406 52.247267 
L 101.379221 59.918572 
L 102.105037 59.918572 
L 102.830852 56.431615 
L 103.556668 58.523789 
L 104.282483 53.64205 
L 105.008299 54.339441 
L 105.734114 56.431615 
L 106.459929 52.944659 
L 107.185745 53.64205 
L 107.91156 54.339441 
L 108.637376 52.944659 
L 109.363191 53.64205 
L 110.089007 53.64205 
L 110.814822 59.22118 
L 111.540638 58.523789 
L 112.266453 61.313354 
L 112.992269 53.64205 
L 113.718084 54.339441 
L 114.4439 51.549876 
L 115.169715 52.944659 
L 115.895531 56.431615 
L 116.621346 52.944659 
L 117.347162 52.247267 
L 118.072977 55.036833 
L 118.798793 52.247267 
L 119.524608 58.523789 
L 120.250424 57.129006 
L 120.976239 60.615963 
L 121.702054 58.523789 
L 122.42787 52.247267 
L 123.153685 53.64205 
L 123.879501 52.247267 
L 124.605316 54.339441 
L 125.331132 55.036833 
L 126.056947 57.129006 
L 126.782763 53.64205 
L 127.508578 52.944659 
L 128.234394 56.431615 
" clip-path="url(#p89ef82d973)" style="fill: none; stroke: #fccc9b; stroke-width: 1.5; stroke-linecap: square"/>
   </g>
   <g id="line2d_9">
    <path d="M 37.54375 73.517702 
L 132.552996 73.517702 
" clip-path="url(#p89ef82d973)" style="fill: none; stroke-dasharray: 3.7,1.6; stroke-dashoffset: 0; stroke: #666666"/>
   </g>
   <g id="patch_3">
    <path d="M 37.54375 105.249005 
L 37.54375 38.613268 
" style="fill: none; stroke: #000000; stroke-width: 0.8; stroke-linejoin: miter; stroke-linecap: square"/>
   </g>
   <g id="patch_4">
    <path d="M 37.54375 105.249005 
L 132.552996 105.249005 
" style="fill: none; stroke: #000000; stroke-width: 0.8; stroke-linejoin: miter; stroke-linecap: square"/>
   </g>
   <g id="text_10">
    <!-- A -->
    <g transform="translate(28.042825 31.949694) scale(0.08 -0.08)">
     <defs>
      <path id="Roboto-Bold-41" d="M 2975 938 
L 1331 938 
L 1019 0 
L 22 0 
L 1716 4550 
L 2584 4550 
L 4288 0 
L 3291 0 
L 2975 938 
z
M 1584 1697 
L 2722 1697 
L 2150 3400 
L 1584 1697 
z
" transform="scale(0.015625)"/>
     </defs>
     <use xlink:href="#Roboto-Bold-41"/>
    </g>
   </g>
   <g id="text_11">
    <!-- Category Learning -->
    <g transform="translate(52.650873 32.613268) scale(0.08 -0.08)">
     <defs>
      <path id="Roboto-Regular-67" d="M 300 1719 
Q 300 2509 665 2976 
Q 1031 3444 1634 3444 
Q 2253 3444 2600 3006 
L 2628 3381 
L 3156 3381 
L 3156 81 
Q 3156 -575 2767 -953 
Q 2378 -1331 1722 -1331 
Q 1356 -1331 1006 -1175 
Q 656 -1019 472 -747 
L 772 -400 
Q 1144 -859 1681 -859 
Q 2103 -859 2339 -621 
Q 2575 -384 2575 47 
L 2575 338 
Q 2228 -63 1628 -63 
Q 1034 -63 667 415 
Q 300 894 300 1719 
z
M 881 1653 
Q 881 1081 1115 754 
Q 1350 428 1772 428 
Q 2319 428 2575 925 
L 2575 2469 
Q 2309 2953 1778 2953 
Q 1356 2953 1118 2625 
Q 881 2297 881 1653 
z
" transform="scale(0.015625)"/>
      <path id="Roboto-Regular-79" d="M 1544 847 
L 2331 3381 
L 2950 3381 
L 1591 -522 
Q 1275 -1366 588 -1366 
L 478 -1356 
L 263 -1316 
L 263 -847 
L 419 -859 
Q 713 -859 877 -740 
Q 1041 -622 1147 -306 
L 1275 38 
L 69 3381 
L 700 3381 
L 1544 847 
z
" transform="scale(0.015625)"/>
      <path id="Roboto-Regular-20" transform="scale(0.015625)"/>
      <path id="Roboto-Regular-4c" d="M 1131 491 
L 3288 491 
L 3288 0 
L 528 0 
L 528 4550 
L 1131 4550 
L 1131 491 
z
" transform="scale(0.015625)"/>
      <path id="Roboto-Regular-6e" d="M 984 3381 
L 1003 2956 
Q 1391 3444 2016 3444 
Q 3088 3444 3097 2234 
L 3097 0 
L 2519 0 
L 2519 2238 
Q 2516 2603 2352 2778 
Q 2188 2953 1841 2953 
Q 1559 2953 1346 2803 
Q 1134 2653 1016 2409 
L 1016 0 
L 438 0 
L 438 3381 
L 984 3381 
z
" transform="scale(0.015625)"/>
     </defs>
     <use xlink:href="#Roboto-Regular-43"/>
     <use xlink:href="#Roboto-Regular-61" x="65.087891"/>
     <use xlink:href="#Roboto-Regular-74" x="119.482422"/>
     <use xlink:href="#Roboto-Regular-65" x="152.148438"/>
     <use xlink:href="#Roboto-Regular-67" x="205.126953"/>
     <use xlink:href="#Roboto-Regular-6f" x="261.230469"/>
     <use xlink:href="#Roboto-Regular-72" x="318.261719"/>
     <use xlink:href="#Roboto-Regular-79" x="352.099609"/>
     <use xlink:href="#Roboto-Regular-20" x="399.414062"/>
     <use xlink:href="#Roboto-Regular-4c" x="424.169922"/>
     <use xlink:href="#Roboto-Regular-65" x="477.978516"/>
     <use xlink:href="#Roboto-Regular-61" x="530.957031"/>
     <use xlink:href="#Roboto-Regular-72" x="585.351562"/>
     <use xlink:href="#Roboto-Regular-6e" x="619.189453"/>
     <use xlink:href="#Roboto-Regular-69" x="674.365234"/>
     <use xlink:href="#Roboto-Regular-6e" x="698.632812"/>
     <use xlink:href="#Roboto-Regular-67" x="753.808594"/>
    </g>
   </g>
  </g>
  <g id="axes_2">
   <g id="patch_5">
    <path d="M 156.432675 105.249005 
L 251.441921 105.249005 
L 251.441921 38.613268 
L 156.432675 38.613268 
z
" style="fill: #ffffff"/>
   </g>
   <g id="PolyCollection_2">
    <defs>
     <path id="mec6524d516" d="M 160.751277 -76.016383 
L 160.751277 -62.859501 
L 162.21521 -63.614087 
L 163.679143 -61.311632 
L 165.143076 -58.98983 
L 166.607008 -63.633435 
L 168.070941 -69.050975 
L 169.534874 -60.537698 
L 170.998807 -64.388021 
L 172.46274 -71.372777 
L 173.926673 -61.311632 
L 175.390606 -69.050975 
L 176.854539 -65.181303 
L 178.318472 -57.441961 
L 179.782405 -63.633435 
L 181.246338 -66.729172 
L 182.71027 -63.633435 
L 184.174203 -66.729172 
L 185.638136 -69.050975 
L 187.102069 -71.372777 
L 188.566002 -68.27704 
L 190.029935 -68.27704 
L 191.493868 -67.503106 
L 192.957801 -62.859501 
L 194.421734 -70.598843 
L 195.885667 -70.598843 
L 197.3496 -69.824909 
L 198.813532 -68.257692 
L 200.277465 -70.598843 
L 201.741398 -69.031626 
L 203.205331 -66.729172 
L 204.669264 -69.824909 
L 206.133197 -67.503106 
L 207.59713 -70.579495 
L 209.061063 -74.468514 
L 210.524996 -72.920646 
L 211.988929 -77.544903 
L 213.452862 -73.69458 
L 214.916794 -67.503106 
L 216.380727 -72.920646 
L 217.84466 -68.27704 
L 219.308593 -68.27704 
L 220.772526 -65.955238 
L 222.236459 -72.920646 
L 223.700392 -76.790317 
L 225.164325 -76.790317 
L 226.628258 -68.27704 
L 228.092191 -68.257692 
L 229.556124 -69.824909 
L 231.020056 -73.69458 
L 232.483989 -72.920646 
L 233.947922 -78.338185 
L 235.411855 -72.920646 
L 236.875788 -76.790317 
L 238.339721 -71.372777 
L 239.803654 -72.920646 
L 241.267587 -72.901297 
L 242.73152 -65.181303 
L 244.195453 -69.050975 
L 245.659386 -69.050975 
L 247.123318 -74.468514 
L 247.123318 -86.077528 
L 247.123318 -86.077528 
L 245.659386 -82.207857 
L 244.195453 -81.453271 
L 242.73152 -79.11212 
L 241.267587 -85.303593 
L 239.803654 -85.303593 
L 238.339721 -84.529659 
L 236.875788 -88.39933 
L 235.411855 -85.303593 
L 233.947922 -89.173265 
L 232.483989 -85.303593 
L 231.020056 -85.303593 
L 229.556124 -82.207857 
L 228.092191 -80.659988 
L 226.628258 -80.659988 
L 225.164325 -87.625396 
L 223.700392 -87.625396 
L 222.236459 -85.303593 
L 220.772526 -80.659988 
L 219.308593 -81.433922 
L 217.84466 -81.433922 
L 216.380727 -85.303593 
L 214.916794 -80.659988 
L 213.452862 -84.549008 
L 211.988929 -88.39933 
L 210.524996 -84.529659 
L 209.061063 -86.077528 
L 207.59713 -83.755725 
L 206.133197 -79.886054 
L 204.669264 -82.981791 
L 203.205331 -79.11212 
L 201.741398 -81.433922 
L 200.277465 -82.981791 
L 198.813532 -80.679336 
L 197.3496 -82.207857 
L 195.885667 -82.981791 
L 194.421734 -82.981791 
L 192.957801 -76.016383 
L 191.493868 -80.659988 
L 190.029935 -81.433922 
L 188.566002 -81.433922 
L 187.102069 -83.755725 
L 185.638136 -82.207857 
L 184.174203 -79.886054 
L 182.71027 -76.790317 
L 181.246338 -79.886054 
L 179.782405 -78.338185 
L 178.318472 -71.372777 
L 176.854539 -78.338185 
L 175.390606 -82.207857 
L 173.926673 -75.242448 
L 172.46274 -83.755725 
L 170.998807 -76.790317 
L 169.534874 -72.920646 
L 168.070941 -82.207857 
L 166.607008 -77.564251 
L 165.143076 -72.920646 
L 163.679143 -75.242448 
L 162.21521 -76.790317 
L 160.751277 -76.016383 
z
" style="stroke: #fccc9b; stroke-opacity: 0.2"/>
    </defs>
    <g clip-path="url(#p6b1d9bd3c7)">
     <use xlink:href="#mec6524d516" x="0" y="138.699005" style="fill: #fccc9b; fill-opacity: 0.2; stroke: #fccc9b; stroke-opacity: 0.2"/>
    </g>
   </g>
   <g id="matplotlib.axis_3">
    <g id="xtick_5">
     <g id="line2d_10">
      <g>
       <use xlink:href="#m79e2bdac06" x="160.751277" y="105.249005" style="stroke: #000000; stroke-width: 0.8"/>
      </g>
     </g>
     <g id="text_12">
      <!-- 0 -->
      <g transform="translate(158.505027 118.249005) scale(0.08 -0.08)">
       <use xlink:href="#Roboto-Regular-30"/>
      </g>
     </g>
    </g>
    <g id="xtick_6">
     <g id="line2d_11">
      <g>
       <use xlink:href="#m79e2bdac06" x="190.029935" y="105.249005" style="stroke: #000000; stroke-width: 0.8"/>
      </g>
     </g>
     <g id="text_13">
      <!-- 20 -->
      <g transform="translate(185.537435 118.249005) scale(0.08 -0.08)">
       <use xlink:href="#Roboto-Regular-32"/>
       <use xlink:href="#Roboto-Regular-30" x="56.152344"/>
      </g>
     </g>
    </g>
    <g id="xtick_7">
     <g id="line2d_12">
      <g>
       <use xlink:href="#m79e2bdac06" x="219.308593" y="105.249005" style="stroke: #000000; stroke-width: 0.8"/>
      </g>
     </g>
     <g id="text_14">
      <!-- 40 -->
      <g transform="translate(214.816093 118.249005) scale(0.08 -0.08)">
       <use xlink:href="#Roboto-Regular-34"/>
       <use xlink:href="#Roboto-Regular-30" x="56.152344"/>
      </g>
     </g>
    </g>
    <g id="xtick_8">
     <g id="line2d_13">
      <g>
       <use xlink:href="#m79e2bdac06" x="248.587251" y="105.249005" style="stroke: #000000; stroke-width: 0.8"/>
      </g>
     </g>
     <g id="text_15">
      <!-- 60 -->
      <g transform="translate(244.094751 118.249005) scale(0.08 -0.08)">
       <defs>
        <path id="Roboto-Regular-36" d="M 2647 4553 
L 2647 4063 
L 2541 4063 
Q 1866 4050 1466 3662 
Q 1066 3275 1003 2572 
Q 1363 2984 1984 2984 
Q 2578 2984 2933 2565 
Q 3288 2147 3288 1484 
Q 3288 781 2905 359 
Q 2522 -63 1878 -63 
Q 1225 -63 819 439 
Q 413 941 413 1731 
L 413 1953 
Q 413 3209 948 3873 
Q 1484 4538 2544 4553 
L 2647 4553 
z
M 1888 2503 
Q 1591 2503 1341 2325 
Q 1091 2147 994 1878 
L 994 1666 
Q 994 1103 1247 759 
Q 1500 416 1878 416 
Q 2269 416 2492 703 
Q 2716 991 2716 1456 
Q 2716 1925 2489 2214 
Q 2263 2503 1888 2503 
z
" transform="scale(0.015625)"/>
       </defs>
       <use xlink:href="#Roboto-Regular-36"/>
       <use xlink:href="#Roboto-Regular-30" x="56.152344"/>
      </g>
     </g>
    </g>
    <g id="text_16">
     <!-- Trial -->
     <g transform="translate(196.079798 129.874005) scale(0.08 -0.08)">
      <use xlink:href="#Roboto-Regular-54"/>
      <use xlink:href="#Roboto-Regular-72" x="59.667969"/>
      <use xlink:href="#Roboto-Regular-69" x="93.505859"/>
      <use xlink:href="#Roboto-Regular-61" x="117.773438"/>
      <use xlink:href="#Roboto-Regular-6c" x="172.167969"/>
     </g>
    </g>
   </g>
   <g id="matplotlib.axis_4">
    <g id="ytick_4">
     <g id="line2d_14">
      <g>
       <use xlink:href="#m42bec96011" x="156.432675" y="105.249005" style="stroke: #000000; stroke-width: 0.8"/>
      </g>
     </g>
    </g>
    <g id="ytick_5">
     <g id="line2d_15">
      <g>
       <use xlink:href="#m42bec96011" x="156.432675" y="73.517702" style="stroke: #000000; stroke-width: 0.8"/>
      </g>
     </g>
    </g>
    <g id="ytick_6">
     <g id="line2d_16">
      <g>
       <use xlink:href="#m42bec96011" x="156.432675" y="41.786398" style="stroke: #000000; stroke-width: 0.8"/>
      </g>
     </g>
    </g>
   </g>
   <g id="line2d_17">
    <path d="M 160.751277 69.64803 
L 162.21521 68.874096 
L 163.679143 70.421965 
L 165.143076 72.743767 
L 166.607008 68.100162 
L 168.070941 63.456557 
L 169.534874 71.969833 
L 170.998807 68.100162 
L 172.46274 61.134754 
L 173.926673 70.421965 
L 175.390606 63.456557 
L 176.854539 67.326228 
L 178.318472 74.291636 
L 179.782405 68.100162 
L 181.246338 65.004425 
L 182.71027 68.100162 
L 184.174203 65.004425 
L 185.638136 62.682622 
L 187.102069 61.134754 
L 188.566002 63.456557 
L 190.029935 63.456557 
L 191.493868 65.004425 
L 192.957801 69.64803 
L 194.421734 61.908688 
L 195.885667 61.908688 
L 197.3496 62.682622 
L 198.813532 64.230491 
L 200.277465 61.908688 
L 201.741398 63.456557 
L 203.205331 65.778359 
L 204.669264 61.908688 
L 206.133197 65.004425 
L 207.59713 61.908688 
L 209.061063 58.039017 
L 210.524996 59.586885 
L 211.988929 55.717214 
L 213.452862 59.586885 
L 214.916794 64.230491 
L 216.380727 59.586885 
L 217.84466 63.456557 
L 219.308593 63.456557 
L 220.772526 65.004425 
L 222.236459 59.586885 
L 223.700392 56.491148 
L 225.164325 56.491148 
L 226.628258 64.230491 
L 228.092191 64.230491 
L 229.556124 62.682622 
L 231.020056 58.812951 
L 232.483989 59.586885 
L 233.947922 54.94328 
L 235.411855 59.586885 
L 236.875788 55.717214 
L 238.339721 60.36082 
L 239.803654 59.586885 
L 241.267587 59.586885 
L 242.73152 66.552293 
L 244.195453 62.682622 
L 245.659386 63.456557 
L 247.123318 58.039017 
" clip-path="url(#p6b1d9bd3c7)" style="fill: none; stroke: #fccc9b; stroke-width: 1.5; stroke-linecap: square"/>
   </g>
   <g id="line2d_18">
    <path d="M 156.432675 73.517702 
L 251.441921 73.517702 
" clip-path="url(#p6b1d9bd3c7)" style="fill: none; stroke-dasharray: 3.7,1.6; stroke-dashoffset: 0; stroke: #666666"/>
   </g>
   <g id="patch_6">
    <path d="M 156.432675 105.249005 
L 156.432675 38.613268 
" style="fill: none; stroke: #000000; stroke-width: 0.8; stroke-linejoin: miter; stroke-linecap: square"/>
   </g>
   <g id="patch_7">
    <path d="M 156.432675 105.249005 
L 251.441921 105.249005 
" style="fill: none; stroke: #000000; stroke-width: 0.8; stroke-linejoin: miter; stroke-linecap: square"/>
   </g>
   <g id="text_17">
    <!-- B -->
    <g transform="translate(146.93175 31.949694) scale(0.08 -0.08)">
     <defs>
      <path id="Roboto-Bold-42" d="M 406 0 
L 406 4550 
L 2000 4550 
Q 2828 4550 3256 4233 
Q 3684 3916 3684 3303 
Q 3684 2969 3512 2714 
Q 3341 2459 3034 2341 
Q 3384 2253 3586 1987 
Q 3788 1722 3788 1338 
Q 3788 681 3369 343 
Q 2950 6 2175 0 
L 406 0 
z
M 1344 1981 
L 1344 753 
L 2147 753 
Q 2478 753 2664 911 
Q 2850 1069 2850 1347 
Q 2850 1972 2203 1981 
L 1344 1981 
z
M 1344 2644 
L 2038 2644 
Q 2747 2656 2747 3209 
Q 2747 3519 2567 3655 
Q 2388 3791 2000 3791 
L 1344 3791 
L 1344 2644 
z
" transform="scale(0.015625)"/>
     </defs>
     <use xlink:href="#Roboto-Bold-42"/>
    </g>
   </g>
   <g id="text_18">
    <!-- Reward Learning -->
    <g transform="translate(174.144173 32.613268) scale(0.08 -0.08)">
     <defs>
      <path id="Roboto-Regular-52" d="M 2197 1841 
L 1128 1841 
L 1128 0 
L 525 0 
L 525 4550 
L 2031 4550 
Q 2800 4550 3214 4200 
Q 3628 3850 3628 3181 
Q 3628 2756 3398 2440 
Q 3169 2125 2759 1969 
L 3828 38 
L 3828 0 
L 3184 0 
L 2197 1841 
z
M 1128 2331 
L 2050 2331 
Q 2497 2331 2761 2562 
Q 3025 2794 3025 3181 
Q 3025 3603 2773 3828 
Q 2522 4053 2047 4056 
L 1128 4056 
L 1128 2331 
z
" transform="scale(0.015625)"/>
      <path id="Roboto-Regular-77" d="M 3431 797 
L 4081 3381 
L 4659 3381 
L 3675 0 
L 3206 0 
L 2384 2563 
L 1584 0 
L 1116 0 
L 134 3381 
L 709 3381 
L 1375 850 
L 2163 3381 
L 2628 3381 
L 3431 797 
z
" transform="scale(0.015625)"/>
      <path id="Roboto-Regular-64" d="M 297 1719 
Q 297 2497 665 2970 
Q 1034 3444 1631 3444 
Q 2225 3444 2572 3038 
L 2572 4800 
L 3150 4800 
L 3150 0 
L 2619 0 
L 2591 363 
Q 2244 -63 1625 -63 
Q 1038 -63 667 418 
Q 297 900 297 1675 
L 297 1719 
z
M 875 1653 
Q 875 1078 1112 753 
Q 1350 428 1769 428 
Q 2319 428 2572 922 
L 2572 2475 
Q 2313 2953 1775 2953 
Q 1350 2953 1112 2625 
Q 875 2297 875 1653 
z
" transform="scale(0.015625)"/>
     </defs>
     <use xlink:href="#Roboto-Regular-52"/>
     <use xlink:href="#Roboto-Regular-65" x="61.572266"/>
     <use xlink:href="#Roboto-Regular-77" x="114.550781"/>
     <use xlink:href="#Roboto-Regular-61" x="189.697266"/>
     <use xlink:href="#Roboto-Regular-72" x="244.091797"/>
     <use xlink:href="#Roboto-Regular-64" x="277.929688"/>
     <use xlink:href="#Roboto-Regular-20" x="334.326172"/>
     <use xlink:href="#Roboto-Regular-4c" x="359.082031"/>
     <use xlink:href="#Roboto-Regular-65" x="412.890625"/>
     <use xlink:href="#Roboto-Regular-61" x="465.869141"/>
     <use xlink:href="#Roboto-Regular-72" x="520.263672"/>
     <use xlink:href="#Roboto-Regular-6e" x="554.101562"/>
     <use xlink:href="#Roboto-Regular-69" x="609.277344"/>
     <use xlink:href="#Roboto-Regular-6e" x="633.544922"/>
     <use xlink:href="#Roboto-Regular-67" x="688.720703"/>
    </g>
   </g>
  </g>
  <g id="axes_3">
   <g id="patch_8">
    <path d="M 275.321599 105.249005 
L 370.330845 105.249005 
L 370.330845 38.613268 
L 275.321599 38.613268 
z
" style="fill: #ffffff"/>
   </g>
   <g id="matplotlib.axis_5">
    <g id="xtick_9">
     <g id="line2d_19">
      <g>
       <use xlink:href="#m79e2bdac06" x="279.485351" y="105.249005" style="stroke: #000000; stroke-width: 0.8"/>
      </g>
     </g>
     <g id="text_19">
      <!-- 0 -->
      <g transform="translate(277.239101 118.249005) scale(0.08 -0.08)">
       <use xlink:href="#Roboto-Regular-30"/>
      </g>
     </g>
    </g>
    <g id="xtick_10">
     <g id="line2d_20">
      <g>
       <use xlink:href="#m79e2bdac06" x="309.767183" y="105.249005" style="stroke: #000000; stroke-width: 0.8"/>
      </g>
     </g>
     <g id="text_20">
      <!-- 40 -->
      <g transform="translate(305.274683 118.249005) scale(0.08 -0.08)">
       <use xlink:href="#Roboto-Regular-34"/>
       <use xlink:href="#Roboto-Regular-30" x="56.152344"/>
      </g>
     </g>
    </g>
    <g id="xtick_11">
     <g id="line2d_21">
      <g>
       <use xlink:href="#m79e2bdac06" x="340.049014" y="105.249005" style="stroke: #000000; stroke-width: 0.8"/>
      </g>
     </g>
     <g id="text_21">
      <!-- 80 -->
      <g transform="translate(335.556514 118.249005) scale(0.08 -0.08)">
       <use xlink:href="#Roboto-Regular-38"/>
       <use xlink:href="#Roboto-Regular-30" x="56.152344"/>
      </g>
     </g>
    </g>
    <g id="xtick_12">
     <g id="line2d_22">
      <g>
       <use xlink:href="#m79e2bdac06" x="370.330845" y="105.249005" style="stroke: #000000; stroke-width: 0.8"/>
      </g>
     </g>
     <g id="text_22">
      <!-- 120 -->
      <g transform="translate(363.592095 118.249005) scale(0.08 -0.08)">
       <use xlink:href="#Roboto-Regular-31"/>
       <use xlink:href="#Roboto-Regular-32" x="56.152344"/>
       <use xlink:href="#Roboto-Regular-30" x="112.304688"/>
      </g>
     </g>
    </g>
    <g id="text_23">
     <!-- Trial -->
     <g transform="translate(314.968722 129.874005) scale(0.08 -0.08)">
      <use xlink:href="#Roboto-Regular-54"/>
      <use xlink:href="#Roboto-Regular-72" x="59.667969"/>
      <use xlink:href="#Roboto-Regular-69" x="93.505859"/>
      <use xlink:href="#Roboto-Regular-61" x="117.773438"/>
      <use xlink:href="#Roboto-Regular-6c" x="172.167969"/>
     </g>
    </g>
   </g>
   <g id="matplotlib.axis_6">
    <g id="ytick_7">
     <g id="line2d_23">
      <g>
       <use xlink:href="#m42bec96011" x="275.321599" y="105.249005" style="stroke: #000000; stroke-width: 0.8"/>
      </g>
     </g>
    </g>
    <g id="ytick_8">
     <g id="line2d_24">
      <g>
       <use xlink:href="#m42bec96011" x="275.321599" y="73.517702" style="stroke: #000000; stroke-width: 0.8"/>
      </g>
     </g>
    </g>
    <g id="ytick_9">
     <g id="line2d_25">
      <g>
       <use xlink:href="#m42bec96011" x="275.321599" y="41.786398" style="stroke: #000000; stroke-width: 0.8"/>
      </g>
     </g>
    </g>
   </g>
   <g id="line2d_26">
    <path d="M 279.485351 74.703267 
L 287.055809 70.100484 
L 294.626267 67.868832 
L 302.196725 66.125354 
L 309.767183 62.987093 
L 317.33764 63.754224 
L 324.908098 63.196311 
L 332.478556 62.777876 
L 340.049014 59.430398 
L 347.619472 56.501354 
L 355.18993 53.711789 
L 362.760387 55.106572 
" clip-path="url(#p7c6564f4c3)" style="fill: none; stroke: #dd9e9e; stroke-width: 1.5; stroke-linecap: square"/>
   </g>
   <g id="line2d_27">
    <path d="M 279.485351 72.401875 
L 287.055809 68.705702 
L 294.626267 68.984658 
L 302.196725 66.40431 
L 309.767183 64.172658 
L 317.33764 63.335789 
L 324.908098 60.476485 
L 332.478556 60.05805 
L 340.049014 60.127789 
L 347.619472 58.872485 
L 355.18993 55.873702 
L 362.760387 59.290919 
" clip-path="url(#p7c6564f4c3)" style="fill: none; stroke: #d04c4c; stroke-width: 1.5; stroke-linecap: square"/>
   </g>
   <g id="line2d_28">
    <path d="M 279.485351 71.634745 
L 287.055809 69.403093 
L 294.626267 66.055615 
L 302.196725 61.243615 
L 309.767183 58.802745 
L 317.33764 60.05805 
L 324.908098 58.663267 
L 332.478556 58.175093 
L 340.049014 57.547441 
L 347.619472 56.501354 
L 355.18993 56.152659 
L 362.760387 55.315789 
" clip-path="url(#p7c6564f4c3)" style="fill: none; stroke: #f59e57; stroke-width: 1.5; stroke-linecap: square"/>
   </g>
   <g id="line2d_29">
    <path d="M 279.485351 72.122919 
L 287.055809 68.496484 
L 294.626267 67.380658 
L 302.196725 64.660832 
L 309.767183 63.26605 
L 317.33764 63.335789 
L 324.908098 60.267267 
L 332.478556 58.802745 
L 340.049014 58.45405 
L 347.619472 56.780311 
L 355.18993 55.455267 
L 362.760387 56.571093 
" clip-path="url(#p7c6564f4c3)" style="fill: none; stroke: #6f6484; stroke-width: 1.5; stroke-linecap: square"/>
   </g>
   <g id="line2d_30">
    <path d="M 279.485351 72.192658 
L 287.055809 72.471615 
L 294.626267 67.24118 
L 302.196725 66.47405 
L 309.767183 65.776658 
L 317.33764 66.40431 
L 324.908098 63.475267 
L 332.478556 61.941006 
L 340.049014 63.126571 
L 347.619472 59.918572 
L 355.18993 60.05805 
L 362.760387 62.498919 
" clip-path="url(#p7c6564f4c3)" style="fill: none; stroke: #101e41; stroke-width: 1.5; stroke-linecap: square"/>
   </g>
   <g id="line2d_31">
    <path d="M 275.321599 73.517702 
L 370.330845 73.517702 
" clip-path="url(#p7c6564f4c3)" style="fill: none; stroke-dasharray: 3.7,1.6; stroke-dashoffset: 0; stroke: #666666"/>
   </g>
   <g id="patch_9">
    <path d="M 275.321599 105.249005 
L 275.321599 38.613268 
" style="fill: none; stroke: #000000; stroke-width: 0.8; stroke-linejoin: miter; stroke-linecap: square"/>
   </g>
   <g id="patch_10">
    <path d="M 275.321599 105.249005 
L 370.330845 105.249005 
" style="fill: none; stroke: #000000; stroke-width: 0.8; stroke-linejoin: miter; stroke-linecap: square"/>
   </g>
   <g id="text_24">
    <!-- C -->
    <g transform="translate(265.820675 31.949694) scale(0.08 -0.08)">
     <defs>
      <path id="Roboto-Bold-43" d="M 3978 1516 
Q 3925 781 3436 359 
Q 2947 -63 2147 -63 
Q 1272 -63 770 526 
Q 269 1116 269 2144 
L 269 2422 
Q 269 3078 500 3578 
Q 731 4078 1161 4345 
Q 1591 4613 2159 4613 
Q 2947 4613 3428 4191 
Q 3909 3769 3984 3006 
L 3047 3006 
Q 3013 3447 2802 3645 
Q 2591 3844 2159 3844 
Q 1691 3844 1458 3508 
Q 1225 3172 1219 2466 
L 1219 2122 
Q 1219 1384 1442 1043 
Q 1666 703 2147 703 
Q 2581 703 2795 901 
Q 3009 1100 3041 1516 
L 3978 1516 
z
" transform="scale(0.015625)"/>
     </defs>
     <use xlink:href="#Roboto-Bold-43"/>
    </g>
   </g>
   <g id="text_25">
    <!-- Category Learning -->
    <g transform="translate(290.428722 32.613268) scale(0.08 -0.08)">
     <use xlink:href="#Roboto-Regular-43"/>
     <use xlink:href="#Roboto-Regular-61" x="65.087891"/>
     <use xlink:href="#Roboto-Regular-74" x="119.482422"/>
     <use xlink:href="#Roboto-Regular-65" x="152.148438"/>
     <use xlink:href="#Roboto-Regular-67" x="205.126953"/>
     <use xlink:href="#Roboto-Regular-6f" x="261.230469"/>
     <use xlink:href="#Roboto-Regular-72" x="318.261719"/>
     <use xlink:href="#Roboto-Regular-79" x="352.099609"/>
     <use xlink:href="#Roboto-Regular-20" x="399.414062"/>
     <use xlink:href="#Roboto-Regular-4c" x="424.169922"/>
     <use xlink:href="#Roboto-Regular-65" x="477.978516"/>
     <use xlink:href="#Roboto-Regular-61" x="530.957031"/>
     <use xlink:href="#Roboto-Regular-72" x="585.351562"/>
     <use xlink:href="#Roboto-Regular-6e" x="619.189453"/>
     <use xlink:href="#Roboto-Regular-69" x="674.365234"/>
     <use xlink:href="#Roboto-Regular-6e" x="698.632812"/>
     <use xlink:href="#Roboto-Regular-67" x="753.808594"/>
    </g>
   </g>
  </g>
  <g id="axes_4">
   <g id="patch_11">
    <path d="M 394.210524 105.249005 
L 489.21977 105.249005 
L 489.21977 38.613268 
L 394.210524 38.613268 
z
" style="fill: #ffffff"/>
   </g>
   <g id="matplotlib.axis_7">
    <g id="xtick_13">
     <g id="line2d_32">
      <g>
       <use xlink:href="#m79e2bdac06" x="398.374276" y="105.249005" style="stroke: #000000; stroke-width: 0.8"/>
      </g>
     </g>
     <g id="text_26">
      <!-- 0 -->
      <g transform="translate(396.128026 118.249005) scale(0.08 -0.08)">
       <use xlink:href="#Roboto-Regular-30"/>
      </g>
     </g>
    </g>
    <g id="xtick_14">
     <g id="line2d_33">
      <g>
       <use xlink:href="#m79e2bdac06" x="428.656107" y="105.249005" style="stroke: #000000; stroke-width: 0.8"/>
      </g>
     </g>
     <g id="text_27">
      <!-- 20 -->
      <g transform="translate(424.163607 118.249005) scale(0.08 -0.08)">
       <use xlink:href="#Roboto-Regular-32"/>
       <use xlink:href="#Roboto-Regular-30" x="56.152344"/>
      </g>
     </g>
    </g>
    <g id="xtick_15">
     <g id="line2d_34">
      <g>
       <use xlink:href="#m79e2bdac06" x="458.937939" y="105.249005" style="stroke: #000000; stroke-width: 0.8"/>
      </g>
     </g>
     <g id="text_28">
      <!-- 40 -->
      <g transform="translate(454.445439 118.249005) scale(0.08 -0.08)">
       <use xlink:href="#Roboto-Regular-34"/>
       <use xlink:href="#Roboto-Regular-30" x="56.152344"/>
      </g>
     </g>
    </g>
    <g id="xtick_16">
     <g id="line2d_35">
      <g>
       <use xlink:href="#m79e2bdac06" x="489.21977" y="105.249005" style="stroke: #000000; stroke-width: 0.8"/>
      </g>
     </g>
     <g id="text_29">
      <!-- 60 -->
      <g transform="translate(484.72727 118.249005) scale(0.08 -0.08)">
       <use xlink:href="#Roboto-Regular-36"/>
       <use xlink:href="#Roboto-Regular-30" x="56.152344"/>
      </g>
     </g>
    </g>
    <g id="text_30">
     <!-- Trial -->
     <g transform="translate(433.857647 129.874005) scale(0.08 -0.08)">
      <use xlink:href="#Roboto-Regular-54"/>
      <use xlink:href="#Roboto-Regular-72" x="59.667969"/>
      <use xlink:href="#Roboto-Regular-69" x="93.505859"/>
      <use xlink:href="#Roboto-Regular-61" x="117.773438"/>
      <use xlink:href="#Roboto-Regular-6c" x="172.167969"/>
     </g>
    </g>
   </g>
   <g id="matplotlib.axis_8">
    <g id="ytick_10">
     <g id="line2d_36">
      <g>
       <use xlink:href="#m42bec96011" x="394.210524" y="105.249005" style="stroke: #000000; stroke-width: 0.8"/>
      </g>
     </g>
    </g>
    <g id="ytick_11">
     <g id="line2d_37">
      <g>
       <use xlink:href="#m42bec96011" x="394.210524" y="73.517702" style="stroke: #000000; stroke-width: 0.8"/>
      </g>
     </g>
    </g>
    <g id="ytick_12">
     <g id="line2d_38">
      <g>
       <use xlink:href="#m42bec96011" x="394.210524" y="41.786398" style="stroke: #000000; stroke-width: 0.8"/>
      </g>
     </g>
    </g>
   </g>
   <g id="line2d_39">
    <path d="M 398.374276 70.112391 
L 405.944734 58.812951 
L 413.515192 58.348591 
L 421.085649 52.776264 
L 428.656107 49.370954 
L 436.226565 43.489053 
L 443.797023 42.405545 
L 451.367481 42.095972 
L 458.937939 41.941185 
L 466.508396 41.786398 
L 474.078854 42.715119 
L 481.649312 42.250759 
" clip-path="url(#p6774b60a4d)" style="fill: none; stroke: #dd9e9e; stroke-width: 1.5; stroke-linecap: square"/>
   </g>
   <g id="line2d_40">
    <path d="M 398.374276 69.493244 
L 405.944734 59.586885 
L 413.515192 59.741672 
L 421.085649 58.503377 
L 428.656107 60.670393 
L 436.226565 58.193804 
L 443.797023 55.098067 
L 451.367481 55.252854 
L 458.937939 54.014559 
L 466.508396 56.800722 
L 474.078854 55.407641 
L 481.649312 58.348591 
" clip-path="url(#p6774b60a4d)" style="fill: none; stroke: #d04c4c; stroke-width: 1.5; stroke-linecap: square"/>
   </g>
   <g id="line2d_41">
    <path d="M 398.374276 69.493244 
L 405.944734 62.992196 
L 413.515192 64.540064 
L 421.085649 62.373049 
L 428.656107 62.218262 
L 436.226565 59.896459 
L 443.797023 57.729443 
L 451.367481 57.41987 
L 458.937939 55.717214 
L 466.508396 60.515606 
L 474.078854 58.193804 
L 481.649312 57.88423 
" clip-path="url(#p6774b60a4d)" style="fill: none; stroke: #f59e57; stroke-width: 1.5; stroke-linecap: square"/>
   </g>
   <g id="line2d_42">
    <path d="M 398.374276 67.326228 
L 405.944734 60.051246 
L 413.515192 56.955509 
L 421.085649 55.562427 
L 428.656107 56.800722 
L 436.226565 56.181575 
L 443.797023 53.395412 
L 451.367481 53.395412 
L 458.937939 51.537969 
L 466.508396 54.169346 
L 474.078854 52.621477 
L 481.649312 53.859772 
" clip-path="url(#p6774b60a4d)" style="fill: none; stroke: #6f6484; stroke-width: 1.5; stroke-linecap: square"/>
   </g>
   <g id="line2d_43">
    <path d="M 398.374276 67.790588 
L 405.944734 62.218262 
L 413.515192 58.193804 
L 421.085649 58.812951 
L 428.656107 59.277312 
L 436.226565 57.574656 
L 443.797023 57.574656 
L 451.367481 56.181575 
L 458.937939 54.478919 
L 466.508396 56.955509 
L 474.078854 56.026788 
L 481.649312 59.741672 
" clip-path="url(#p6774b60a4d)" style="fill: none; stroke: #101e41; stroke-width: 1.5; stroke-linecap: square"/>
   </g>
   <g id="line2d_44">
    <path d="M 394.210524 73.517702 
L 489.21977 73.517702 
" clip-path="url(#p6774b60a4d)" style="fill: none; stroke-dasharray: 3.7,1.6; stroke-dashoffset: 0; stroke: #666666"/>
   </g>
   <g id="patch_12">
    <path d="M 394.210524 105.249005 
L 394.210524 38.613268 
" style="fill: none; stroke: #000000; stroke-width: 0.8; stroke-linejoin: miter; stroke-linecap: square"/>
   </g>
   <g id="patch_13">
    <path d="M 394.210524 105.249005 
L 489.21977 105.249005 
" style="fill: none; stroke: #000000; stroke-width: 0.8; stroke-linejoin: miter; stroke-linecap: square"/>
   </g>
   <g id="text_31">
    <!-- D -->
    <g transform="translate(384.7096 31.949694) scale(0.08 -0.08)">
     <defs>
      <path id="Roboto-Bold-44" d="M 406 0 
L 406 4550 
L 1806 4550 
Q 2406 4550 2879 4279 
Q 3353 4009 3618 3511 
Q 3884 3013 3884 2378 
L 3884 2169 
Q 3884 1534 3623 1040 
Q 3363 547 2888 275 
Q 2413 3 1816 0 
L 406 0 
z
M 1344 3791 
L 1344 753 
L 1797 753 
Q 2347 753 2637 1112 
Q 2928 1472 2934 2141 
L 2934 2381 
Q 2934 3075 2646 3433 
Q 2359 3791 1806 3791 
L 1344 3791 
z
" transform="scale(0.015625)"/>
     </defs>
     <use xlink:href="#Roboto-Bold-44"/>
    </g>
   </g>
   <g id="text_32">
    <!-- Reward Learning -->
    <g transform="translate(411.922022 32.613268) scale(0.08 -0.08)">
     <use xlink:href="#Roboto-Regular-52"/>
     <use xlink:href="#Roboto-Regular-65" x="61.572266"/>
     <use xlink:href="#Roboto-Regular-77" x="114.550781"/>
     <use xlink:href="#Roboto-Regular-61" x="189.697266"/>
     <use xlink:href="#Roboto-Regular-72" x="244.091797"/>
     <use xlink:href="#Roboto-Regular-64" x="277.929688"/>
     <use xlink:href="#Roboto-Regular-20" x="334.326172"/>
     <use xlink:href="#Roboto-Regular-4c" x="359.082031"/>
     <use xlink:href="#Roboto-Regular-65" x="412.890625"/>
     <use xlink:href="#Roboto-Regular-61" x="465.869141"/>
     <use xlink:href="#Roboto-Regular-72" x="520.263672"/>
     <use xlink:href="#Roboto-Regular-6e" x="554.101562"/>
     <use xlink:href="#Roboto-Regular-69" x="609.277344"/>
     <use xlink:href="#Roboto-Regular-6e" x="633.544922"/>
     <use xlink:href="#Roboto-Regular-67" x="688.720703"/>
    </g>
   </g>
  </g>
  <g id="legend_1">
   <g id="patch_14">
    <path d="M 36.71426 16.4825 
L 52.71426 16.4825 
L 52.71426 10.8825 
L 36.71426 10.8825 
z
" style="fill: #fccc9b"/>
   </g>
   <g id="text_33">
    <!-- Human -->
    <g transform="translate(59.11426 16.4825) scale(0.08 -0.08)">
     <defs>
      <path id="Roboto-Regular-48" d="M 4025 0 
L 3422 0 
L 3422 2103 
L 1128 2103 
L 1128 0 
L 528 0 
L 528 4550 
L 1128 4550 
L 1128 2594 
L 3422 2594 
L 3422 4550 
L 4025 4550 
L 4025 0 
z
" transform="scale(0.015625)"/>
      <path id="Roboto-Regular-75" d="M 2525 334 
Q 2188 -63 1534 -63 
Q 994 -63 711 251 
Q 428 566 425 1181 
L 425 3381 
L 1003 3381 
L 1003 1197 
Q 1003 428 1628 428 
Q 2291 428 2509 922 
L 2509 3381 
L 3088 3381 
L 3088 0 
L 2538 0 
L 2525 334 
z
" transform="scale(0.015625)"/>
      <path id="Roboto-Regular-6d" d="M 981 3381 
L 997 3006 
Q 1369 3444 2000 3444 
Q 2709 3444 2966 2900 
Q 3134 3144 3404 3294 
Q 3675 3444 4044 3444 
Q 5156 3444 5175 2266 
L 5175 0 
L 4597 0 
L 4597 2231 
Q 4597 2594 4431 2773 
Q 4266 2953 3875 2953 
Q 3553 2953 3340 2761 
Q 3128 2569 3094 2244 
L 3094 0 
L 2513 0 
L 2513 2216 
Q 2513 2953 1791 2953 
Q 1222 2953 1013 2469 
L 1013 0 
L 434 0 
L 434 3381 
L 981 3381 
z
" transform="scale(0.015625)"/>
     </defs>
     <use xlink:href="#Roboto-Regular-48"/>
     <use xlink:href="#Roboto-Regular-75" x="71.289062"/>
     <use xlink:href="#Roboto-Regular-6d" x="126.416016"/>
     <use xlink:href="#Roboto-Regular-61" x="214.0625"/>
     <use xlink:href="#Roboto-Regular-6e" x="268.457031"/>
    </g>
   </g>
   <g id="patch_15">
    <path d="M 101.00426 16.4825 
L 117.00426 16.4825 
L 117.00426 10.8825 
L 101.00426 10.8825 
z
" style="fill: #dd9e9e"/>
   </g>
   <g id="text_34">
    <!-- Task -->
    <g transform="translate(123.40426 16.4825) scale(0.08 -0.08)">
     <defs>
      <path id="Roboto-Regular-73" d="M 2406 897 
Q 2406 1131 2229 1261 
Q 2053 1391 1614 1484 
Q 1175 1578 917 1709 
Q 659 1841 536 2022 
Q 413 2203 413 2453 
Q 413 2869 764 3156 
Q 1116 3444 1663 3444 
Q 2238 3444 2595 3147 
Q 2953 2850 2953 2388 
L 2372 2388 
Q 2372 2625 2170 2797 
Q 1969 2969 1663 2969 
Q 1347 2969 1169 2831 
Q 991 2694 991 2472 
Q 991 2263 1156 2156 
Q 1322 2050 1755 1953 
Q 2188 1856 2456 1722 
Q 2725 1588 2854 1398 
Q 2984 1209 2984 938 
Q 2984 484 2621 210 
Q 2259 -63 1681 -63 
Q 1275 -63 962 81 
Q 650 225 473 483 
Q 297 741 297 1041 
L 875 1041 
Q 891 750 1108 579 
Q 1325 409 1681 409 
Q 2009 409 2207 542 
Q 2406 675 2406 897 
z
" transform="scale(0.015625)"/>
      <path id="Roboto-Regular-6b" d="M 1381 1566 
L 1019 1188 
L 1019 0 
L 441 0 
L 441 4800 
L 1019 4800 
L 1019 1897 
L 1328 2269 
L 2381 3381 
L 3084 3381 
L 1769 1969 
L 3238 0 
L 2559 0 
L 1381 1566 
z
" transform="scale(0.015625)"/>
     </defs>
     <use xlink:href="#Roboto-Regular-54"/>
     <use xlink:href="#Roboto-Regular-61" x="59.667969"/>
     <use xlink:href="#Roboto-Regular-73" x="114.0625"/>
     <use xlink:href="#Roboto-Regular-6b" x="165.625"/>
    </g>
   </g>
   <g id="patch_16">
    <path d="M 156.70926 16.4825 
L 172.70926 16.4825 
L 172.70926 10.8825 
L 156.70926 10.8825 
z
" style="fill: #d04c4c"/>
   </g>
   <g id="text_35">
    <!-- Supervised -->
    <g transform="translate(179.10926 16.4825) scale(0.08 -0.08)">
     <defs>
      <path id="Roboto-Regular-53" d="M 1869 2028 
Q 1097 2250 745 2573 
Q 394 2897 394 3372 
Q 394 3909 823 4261 
Q 1253 4613 1941 4613 
Q 2409 4613 2776 4431 
Q 3144 4250 3345 3931 
Q 3547 3613 3547 3234 
L 2944 3234 
Q 2944 3647 2681 3883 
Q 2419 4119 1941 4119 
Q 1497 4119 1248 3923 
Q 1000 3728 1000 3381 
Q 1000 3103 1236 2911 
Q 1472 2719 2039 2559 
Q 2606 2400 2926 2208 
Q 3247 2016 3401 1759 
Q 3556 1503 3556 1156 
Q 3556 603 3125 270 
Q 2694 -63 1972 -63 
Q 1503 -63 1097 117 
Q 691 297 470 609 
Q 250 922 250 1319 
L 853 1319 
Q 853 906 1158 667 
Q 1463 428 1972 428 
Q 2447 428 2700 622 
Q 2953 816 2953 1150 
Q 2953 1484 2718 1667 
Q 2484 1850 1869 2028 
z
" transform="scale(0.015625)"/>
      <path id="Roboto-Regular-76" d="M 1553 784 
L 2391 3381 
L 2981 3381 
L 1769 0 
L 1328 0 
L 103 3381 
L 694 3381 
L 1553 784 
z
" transform="scale(0.015625)"/>
     </defs>
     <use xlink:href="#Roboto-Regular-53"/>
     <use xlink:href="#Roboto-Regular-75" x="59.326172"/>
     <use xlink:href="#Roboto-Regular-70" x="114.453125"/>
     <use xlink:href="#Roboto-Regular-65" x="170.556641"/>
     <use xlink:href="#Roboto-Regular-72" x="223.535156"/>
     <use xlink:href="#Roboto-Regular-76" x="257.373047"/>
     <use xlink:href="#Roboto-Regular-69" x="305.810547"/>
     <use xlink:href="#Roboto-Regular-73" x="330.078125"/>
     <use xlink:href="#Roboto-Regular-65" x="381.640625"/>
     <use xlink:href="#Roboto-Regular-64" x="434.619141"/>
    </g>
   </g>
   <g id="patch_17">
    <path d="M 234.39176 16.4825 
L 250.39176 16.4825 
L 250.39176 10.8825 
L 234.39176 10.8825 
z
" style="fill: #f59e57"/>
   </g>
   <g id="text_36">
    <!-- Self-Supervised -->
    <g transform="translate(256.79176 16.4825) scale(0.08 -0.08)">
     <defs>
      <path id="Roboto-Regular-66" d="M 722 0 
L 722 2934 
L 188 2934 
L 188 3381 
L 722 3381 
L 722 3728 
Q 722 4272 1012 4569 
Q 1303 4866 1834 4866 
Q 2034 4866 2231 4813 
L 2200 4344 
Q 2053 4372 1888 4372 
Q 1606 4372 1453 4208 
Q 1300 4044 1300 3738 
L 1300 3381 
L 2022 3381 
L 2022 2934 
L 1300 2934 
L 1300 0 
L 722 0 
z
" transform="scale(0.015625)"/>
      <path id="Roboto-Regular-2d" d="M 1641 1697 
L 116 1697 
L 116 2169 
L 1641 2169 
L 1641 1697 
z
" transform="scale(0.015625)"/>
     </defs>
     <use xlink:href="#Roboto-Regular-53"/>
     <use xlink:href="#Roboto-Regular-65" x="59.326172"/>
     <use xlink:href="#Roboto-Regular-6c" x="112.304688"/>
     <use xlink:href="#Roboto-Regular-66" x="136.572266"/>
     <use xlink:href="#Roboto-Regular-2d" x="171.289062"/>
     <use xlink:href="#Roboto-Regular-53" x="198.876953"/>
     <use xlink:href="#Roboto-Regular-75" x="258.203125"/>
     <use xlink:href="#Roboto-Regular-70" x="313.330078"/>
     <use xlink:href="#Roboto-Regular-65" x="369.433594"/>
     <use xlink:href="#Roboto-Regular-72" x="422.412109"/>
     <use xlink:href="#Roboto-Regular-76" x="456.25"/>
     <use xlink:href="#Roboto-Regular-69" x="504.6875"/>
     <use xlink:href="#Roboto-Regular-73" x="528.955078"/>
     <use xlink:href="#Roboto-Regular-65" x="580.517578"/>
     <use xlink:href="#Roboto-Regular-64" x="633.496094"/>
    </g>
   </g>
   <g id="patch_18">
    <path d="M 327.98551 16.4825 
L 343.98551 16.4825 
L 343.98551 10.8825 
L 327.98551 10.8825 
z
" style="fill: #6f6484"/>
   </g>
   <g id="text_37">
    <!-- Multimodal -->
    <g transform="translate(350.38551 16.4825) scale(0.08 -0.08)">
     <defs>
      <path id="Roboto-Regular-4d" d="M 1303 4550 
L 2791 838 
L 4278 4550 
L 5056 4550 
L 5056 0 
L 4456 0 
L 4456 1772 
L 4513 3684 
L 3019 0 
L 2559 0 
L 1069 3675 
L 1128 1772 
L 1128 0 
L 528 0 
L 528 4550 
L 1303 4550 
z
" transform="scale(0.015625)"/>
     </defs>
     <use xlink:href="#Roboto-Regular-4d"/>
     <use xlink:href="#Roboto-Regular-75" x="87.304688"/>
     <use xlink:href="#Roboto-Regular-6c" x="142.431641"/>
     <use xlink:href="#Roboto-Regular-74" x="166.699219"/>
     <use xlink:href="#Roboto-Regular-69" x="199.365234"/>
     <use xlink:href="#Roboto-Regular-6d" x="223.632812"/>
     <use xlink:href="#Roboto-Regular-6f" x="311.279297"/>
     <use xlink:href="#Roboto-Regular-64" x="368.310547"/>
     <use xlink:href="#Roboto-Regular-61" x="424.707031"/>
     <use xlink:href="#Roboto-Regular-6c" x="479.101562"/>
    </g>
   </g>
   <g id="patch_19">
    <path d="M 406.65426 16.4825 
L 422.65426 16.4825 
L 422.65426 10.8825 
L 406.65426 10.8825 
z
" style="fill: #101e41"/>
   </g>
   <g id="text_38">
    <!-- Language -->
    <g transform="translate(429.05426 16.4825) scale(0.08 -0.08)">
     <use xlink:href="#Roboto-Regular-4c"/>
     <use xlink:href="#Roboto-Regular-61" x="53.808594"/>
     <use xlink:href="#Roboto-Regular-6e" x="108.203125"/>
     <use xlink:href="#Roboto-Regular-67" x="163.378906"/>
     <use xlink:href="#Roboto-Regular-75" x="219.482422"/>
     <use xlink:href="#Roboto-Regular-61" x="274.609375"/>
     <use xlink:href="#Roboto-Regular-67" x="329.003906"/>
     <use xlink:href="#Roboto-Regular-65" x="385.107422"/>
    </g>
   </g>
  </g>
 </g>
 <defs>
  <clipPath id="p89ef82d973">
   <rect x="37.54375" y="38.613268" width="95.009246" height="66.635737"/>
  </clipPath>
  <clipPath id="p6b1d9bd3c7">
   <rect x="156.432675" y="38.613268" width="95.009246" height="66.635737"/>
  </clipPath>
  <clipPath id="p7c6564f4c3">
   <rect x="275.321599" y="38.613268" width="95.009246" height="66.635737"/>
  </clipPath>
  <clipPath id="p6774b60a4d">
   <rect x="394.210524" y="38.613268" width="95.009246" height="66.635737"/>
  </clipPath>
 </defs>
</svg>
